<svg width="418" height="91" viewBox="0 0 418 91" fill="none" xmlns="http://www.w3.org/2000/svg">
<path d="M120.781 21H115.149V20.384H115.853C116.498 20.384 116.821 20.1787 116.821 19.768C116.821 19.7093 116.748 19.46 116.601 19.02L115.105 15.104H109.561L108.109 18.844C108.109 18.8733 108.058 19.0567 107.955 19.394C107.852 19.7167 107.801 19.944 107.801 20.076C107.801 20.1933 107.882 20.274 108.043 20.318C108.204 20.362 108.549 20.384 109.077 20.384H109.429V21H105.117V20.384H105.425C105.909 20.384 106.261 20.3033 106.481 20.142C106.701 19.966 106.892 19.68 107.053 19.284L111.893 6.656C111.966 6.64133 112.098 6.53867 112.289 6.348C112.48 6.14267 112.656 5.93733 112.817 5.732C112.978 5.512 113.059 5.38733 113.059 5.358C113.059 5.32867 113.052 5.30667 113.037 5.292L113.345 5.204L118.757 19.372C118.918 19.7093 119.08 19.966 119.241 20.142C119.417 20.3033 119.666 20.384 119.989 20.384H120.781V21ZM114.709 14.18L112.333 7.888L109.913 14.18H114.709ZM121.979 20.384L122.199 18.008L122.815 18.052C122.815 18.5507 123.137 19.0273 123.783 19.482C124.428 19.9367 125.125 20.164 125.873 20.164C127.413 20.164 128.183 19.6947 128.183 18.756C128.183 18.2867 127.985 17.8687 127.589 17.502C127.193 17.1353 126.716 16.8347 126.159 16.6C125.601 16.3507 125.044 16.1013 124.487 15.852C123.929 15.588 123.453 15.2507 123.057 14.84C122.661 14.4147 122.463 13.9307 122.463 13.388C122.463 11.4813 123.871 10.528 126.687 10.528C127.317 10.528 128.007 10.704 128.755 11.056L128.623 13.256H128.095C128.095 12.8453 127.853 12.4493 127.369 12.068C126.899 11.6867 126.386 11.496 125.829 11.496C125.271 11.496 124.795 11.606 124.399 11.826C124.017 12.046 123.827 12.376 123.827 12.816C123.827 13.2413 124.025 13.5933 124.421 13.872C124.817 14.1507 125.293 14.378 125.851 14.554C126.408 14.73 126.965 14.928 127.523 15.148C128.08 15.368 128.557 15.7273 128.953 16.226C129.349 16.7247 129.547 17.348 129.547 18.096C129.547 18.844 129.305 19.4673 128.821 19.966C127.955 20.8607 126.701 21.308 125.059 21.308C123.783 21.308 122.756 21 121.979 20.384ZM133.456 5.688C133.793 5.688 134.05 5.798 134.226 6.018C134.417 6.238 134.512 6.524 134.512 6.876C134.512 7.21333 134.373 7.49933 134.094 7.734C133.815 7.954 133.507 8.064 133.17 8.064C132.847 8.064 132.591 7.954 132.4 7.734C132.224 7.514 132.136 7.24267 132.136 6.92C132.136 6.58267 132.275 6.29667 132.554 6.062C132.833 5.81267 133.133 5.688 133.456 5.688ZM135.876 21H131.432V20.384H131.784C132.18 20.384 132.429 20.318 132.532 20.186C132.649 20.054 132.708 19.8413 132.708 19.548V12.948C132.708 12.6693 132.613 12.4713 132.422 12.354C132.246 12.222 131.916 12.156 131.432 12.156V11.54C131.725 11.54 132.165 11.4373 132.752 11.232C133.353 11.012 133.808 10.8067 134.116 10.616L134.512 10.528V19.416C134.512 19.6507 134.519 19.8193 134.534 19.922C134.563 20.0247 134.651 20.1273 134.798 20.23C134.945 20.3327 135.172 20.384 135.48 20.384H135.876V21ZM147.145 21H143.977V19.24C143.244 20.032 142.635 20.5747 142.151 20.868C141.667 21.1613 141.007 21.308 140.171 21.308C139.35 21.308 138.704 21.1173 138.235 20.736C137.78 20.34 137.553 19.79 137.553 19.086C137.553 18.382 137.854 17.7 138.455 17.04C139.071 16.3653 139.782 15.8593 140.589 15.522C141.41 15.17 142.129 14.906 142.745 14.73C143.361 14.5393 143.772 14.444 143.977 14.444V13.96C143.977 12.5813 143.405 11.892 142.261 11.892C141.469 11.892 140.728 12.0607 140.039 12.398C139.364 12.7353 138.858 13.168 138.521 13.696L138.081 13.3C139.064 11.3933 140.765 10.44 143.185 10.44C143.801 10.44 144.307 10.6087 144.703 10.946C145.114 11.2687 145.385 11.65 145.517 12.09C145.664 12.53 145.737 13.0213 145.737 13.564V19.504C145.737 19.6947 145.752 19.8413 145.781 19.944C145.81 20.0467 145.898 20.1493 146.045 20.252C146.206 20.34 146.441 20.384 146.749 20.384H147.145V21ZM143.977 18.008V15.324C142.833 15.544 141.77 15.984 140.787 16.644C139.804 17.304 139.313 18.0227 139.313 18.8C139.313 19.108 139.46 19.3793 139.753 19.614C140.061 19.834 140.435 19.944 140.875 19.944C141.33 19.944 141.865 19.746 142.481 19.35C143.097 18.9393 143.596 18.492 143.977 18.008ZM150.484 9.164L149.868 9.428C149.604 6.99333 149.384 5.468 149.208 4.852L151.056 4.192C150.953 5.40933 150.762 7.06667 150.484 9.164ZM153.346 20.384L153.566 18.008L154.182 18.052C154.182 18.5507 154.505 19.0273 155.15 19.482C155.795 19.9367 156.492 20.164 157.24 20.164C158.78 20.164 159.55 19.6947 159.55 18.756C159.55 18.2867 159.352 17.8687 158.956 17.502C158.56 17.1353 158.083 16.8347 157.526 16.6C156.969 16.3507 156.411 16.1013 155.854 15.852C155.297 15.588 154.82 15.2507 154.424 14.84C154.028 14.4147 153.83 13.9307 153.83 13.388C153.83 11.4813 155.238 10.528 158.054 10.528C158.685 10.528 159.374 10.704 160.122 11.056L159.99 13.256H159.462C159.462 12.8453 159.22 12.4493 158.736 12.068C158.267 11.6867 157.753 11.496 157.196 11.496C156.639 11.496 156.162 11.606 155.766 11.826C155.385 12.046 155.194 12.376 155.194 12.816C155.194 13.2413 155.392 13.5933 155.788 13.872C156.184 14.1507 156.661 14.378 157.218 14.554C157.775 14.73 158.333 14.928 158.89 15.148C159.447 15.368 159.924 15.7273 160.32 16.226C160.716 16.7247 160.914 17.348 160.914 18.096C160.914 18.844 160.672 19.4673 160.188 19.966C159.323 20.8607 158.069 21.308 156.426 21.308C155.15 21.308 154.123 21 153.346 20.384ZM174.195 4.016C174.752 4.016 175.383 4.192 176.087 4.544L175.911 6.524L175.295 6.48C175.295 6.18667 175.148 5.84933 174.855 5.468C174.562 5.08667 174.18 4.896 173.711 4.896C172.919 4.896 172.325 5.28467 171.929 6.062C171.533 6.83933 171.335 8.09333 171.335 9.824C171.335 10.4107 171.628 10.704 172.215 10.704H174.371V11.628H171.379V19.372C171.379 19.6067 171.386 19.7827 171.401 19.9C171.43 20.0027 171.518 20.1127 171.665 20.23C171.812 20.3327 172.039 20.384 172.347 20.384H173.051V21H168.299V20.384H168.563C168.886 20.384 169.12 20.3327 169.267 20.23C169.428 20.1127 169.516 20.0027 169.531 19.9C169.56 19.7827 169.575 19.6067 169.575 19.372V12.42C169.575 12.1413 169.524 11.9433 169.421 11.826C169.318 11.694 169.106 11.628 168.783 11.628H168.299V10.704H169.575V9.736C169.575 5.92267 171.115 4.016 174.195 4.016ZM185.258 21H182.09V19.24C181.357 20.032 180.748 20.5747 180.264 20.868C179.78 21.1613 179.12 21.308 178.284 21.308C177.463 21.308 176.817 21.1173 176.348 20.736C175.893 20.34 175.666 19.79 175.666 19.086C175.666 18.382 175.967 17.7 176.568 17.04C177.184 16.3653 177.895 15.8593 178.702 15.522C179.523 15.17 180.242 14.906 180.858 14.73C181.474 14.5393 181.885 14.444 182.09 14.444V13.96C182.09 12.5813 181.518 11.892 180.374 11.892C179.582 11.892 178.841 12.0607 178.152 12.398C177.477 12.7353 176.971 13.168 176.634 13.696L176.194 13.3C177.177 11.3933 178.878 10.44 181.298 10.44C181.914 10.44 182.42 10.6087 182.816 10.946C183.227 11.2687 183.498 11.65 183.63 12.09C183.777 12.53 183.85 13.0213 183.85 13.564V19.504C183.85 19.6947 183.865 19.8413 183.894 19.944C183.923 20.0467 184.011 20.1493 184.158 20.252C184.319 20.34 184.554 20.384 184.862 20.384H185.258V21ZM182.09 18.008V15.324C180.946 15.544 179.883 15.984 178.9 16.644C177.917 17.304 177.426 18.0227 177.426 18.8C177.426 19.108 177.573 19.3793 177.866 19.614C178.174 19.834 178.548 19.944 178.988 19.944C179.443 19.944 179.978 19.746 180.594 19.35C181.21 18.9393 181.709 18.492 182.09 18.008ZM186.969 20.384L187.189 18.008L187.805 18.052C187.805 18.5507 188.128 19.0273 188.773 19.482C189.418 19.9367 190.115 20.164 190.863 20.164C192.403 20.164 193.173 19.6947 193.173 18.756C193.173 18.2867 192.975 17.8687 192.579 17.502C192.183 17.1353 191.706 16.8347 191.149 16.6C190.592 16.3507 190.034 16.1013 189.477 15.852C188.92 15.588 188.443 15.2507 188.047 14.84C187.651 14.4147 187.453 13.9307 187.453 13.388C187.453 11.4813 188.861 10.528 191.677 10.528C192.308 10.528 192.997 10.704 193.745 11.056L193.613 13.256H193.085C193.085 12.8453 192.843 12.4493 192.359 12.068C191.89 11.6867 191.376 11.496 190.819 11.496C190.262 11.496 189.785 11.606 189.389 11.826C189.008 12.046 188.817 12.376 188.817 12.816C188.817 13.2413 189.015 13.5933 189.411 13.872C189.807 14.1507 190.284 14.378 190.841 14.554C191.398 14.73 191.956 14.928 192.513 15.148C193.07 15.368 193.547 15.7273 193.943 16.226C194.339 16.7247 194.537 17.348 194.537 18.096C194.537 18.844 194.295 19.4673 193.811 19.966C192.946 20.8607 191.692 21.308 190.049 21.308C188.773 21.308 187.746 21 186.969 20.384ZM202.626 19.636L202.802 20.164C201.702 20.9267 200.499 21.308 199.194 21.308C198.725 21.308 198.321 21.1393 197.984 20.802C197.647 20.4647 197.478 20.0173 197.478 19.46V11.672H196.202V10.748H196.686C197.17 10.748 197.617 10.4547 198.028 9.868C198.453 9.28133 198.666 8.73867 198.666 8.24H199.238V10.748H202.23V11.672H200.074C199.517 11.672 199.238 11.936 199.238 12.464V18.756C199.238 19.724 199.59 20.208 200.294 20.208C201.086 20.208 201.863 20.0173 202.626 19.636ZM212.26 18.316L212.656 18.712C211.717 20.4427 210.03 21.308 207.596 21.308C206.466 21.308 205.498 20.8093 204.692 19.812C203.9 18.8147 203.504 17.7 203.504 16.468C203.504 14.8107 204.039 13.3953 205.11 12.222C206.195 11.034 207.508 10.44 209.048 10.44C209.781 10.44 210.426 10.6527 210.984 11.078C211.981 11.8553 212.48 12.86 212.48 14.092C212.48 14.268 212.443 14.4807 212.37 14.73C212.311 14.9793 212.26 15.104 212.216 15.104L205.132 15.324C205.132 16.468 205.491 17.524 206.21 18.492C206.928 19.46 207.801 19.944 208.828 19.944C209.561 19.944 210.236 19.7973 210.852 19.504C211.482 19.196 211.952 18.8 212.26 18.316ZM205.352 14.444L210.5 14.224C210.529 14.224 210.544 14.092 210.544 13.828C210.544 13.0653 210.316 12.5227 209.862 12.2C209.422 11.8773 208.806 11.716 208.014 11.716C207.236 11.716 206.598 11.958 206.1 12.442C205.601 12.926 205.352 13.5933 205.352 14.444ZM214.469 20.384L214.689 18.008L215.305 18.052C215.305 18.5507 215.628 19.0273 216.273 19.482C216.918 19.9367 217.615 20.164 218.363 20.164C219.903 20.164 220.673 19.6947 220.673 18.756C220.673 18.2867 220.475 17.8687 220.079 17.502C219.683 17.1353 219.206 16.8347 218.649 16.6C218.092 16.3507 217.534 16.1013 216.977 15.852C216.42 15.588 215.943 15.2507 215.547 14.84C215.151 14.4147 214.953 13.9307 214.953 13.388C214.953 11.4813 216.361 10.528 219.177 10.528C219.808 10.528 220.497 10.704 221.245 11.056L221.113 13.256H220.585C220.585 12.8453 220.343 12.4493 219.859 12.068C219.39 11.6867 218.876 11.496 218.319 11.496C217.762 11.496 217.285 11.606 216.889 11.826C216.508 12.046 216.317 12.376 216.317 12.816C216.317 13.2413 216.515 13.5933 216.911 13.872C217.307 14.1507 217.784 14.378 218.341 14.554C218.898 14.73 219.456 14.928 220.013 15.148C220.57 15.368 221.047 15.7273 221.443 16.226C221.839 16.7247 222.037 17.348 222.037 18.096C222.037 18.844 221.795 19.4673 221.311 19.966C220.446 20.8607 219.192 21.308 217.549 21.308C216.273 21.308 215.246 21 214.469 20.384ZM230.126 19.636L230.302 20.164C229.202 20.9267 227.999 21.308 226.694 21.308C226.225 21.308 225.821 21.1393 225.484 20.802C225.147 20.4647 224.978 20.0173 224.978 19.46V11.672H223.702V10.748H224.186C224.67 10.748 225.117 10.4547 225.528 9.868C225.953 9.28133 226.166 8.73867 226.166 8.24H226.738V10.748H229.73V11.672H227.574C227.017 11.672 226.738 11.936 226.738 12.464V18.756C226.738 19.724 227.09 20.208 227.794 20.208C228.586 20.208 229.363 20.0173 230.126 19.636ZM239.936 19.856L242.136 19.768C243.808 19.768 244.966 19.9513 245.612 20.318C246.257 20.67 246.58 21.242 246.58 22.034C246.58 22.826 246.352 23.5153 245.898 24.102C245.443 24.6887 244.849 25.1507 244.116 25.488C242.664 26.1333 241.109 26.456 239.452 26.456C238.484 26.456 237.699 26.2213 237.098 25.752C236.496 25.2973 236.196 24.7253 236.196 24.036C236.196 22.4227 236.885 21.3813 238.264 20.912C237.926 20.912 237.648 20.8387 237.428 20.692C237.222 20.5453 237.12 20.384 237.12 20.208C237.12 20.0173 237.149 19.834 237.208 19.658C237.266 19.482 237.362 19.306 237.494 19.13C237.626 18.9393 237.736 18.7927 237.824 18.69C237.926 18.5727 238.088 18.404 238.308 18.184L238.748 17.744C237.956 17.04 237.56 16.0867 237.56 14.884C237.56 13.6667 238.014 12.618 238.924 11.738C239.833 10.8433 240.83 10.396 241.916 10.396C242.59 10.396 243.192 10.5867 243.72 10.968C244.336 10.264 245.362 9.912 246.8 9.912L246.58 11.804C246.492 11.672 246.338 11.5473 246.118 11.43C245.898 11.298 245.729 11.232 245.612 11.232C245.216 11.232 244.805 11.364 244.38 11.628C244.937 12.2733 245.216 13.0507 245.216 13.96C245.216 15.104 244.776 16.1233 243.896 17.018C243.016 17.9127 242.018 18.36 240.904 18.36C240.332 18.36 239.862 18.2573 239.496 18.052C238.88 18.7853 238.572 19.24 238.572 19.416C238.572 19.7093 239.026 19.856 239.936 19.856ZM241.036 20.956H239.496C239.041 21.2347 238.74 21.4473 238.594 21.594C238.447 21.7407 238.322 21.88 238.22 22.012C238.117 22.144 238.029 22.276 237.956 22.408C237.809 22.716 237.736 23.0607 237.736 23.442C237.736 23.8233 237.912 24.1533 238.264 24.432C238.865 24.872 239.701 25.092 240.772 25.092C241.857 25.092 242.862 24.9087 243.786 24.542C244.71 24.1753 245.172 23.6693 245.172 23.024C245.172 22.3787 244.798 21.8727 244.05 21.506C243.302 21.1393 242.297 20.956 241.036 20.956ZM238.968 14.114C238.968 14.8913 239.239 15.5807 239.782 16.182C240.339 16.7833 240.962 17.084 241.652 17.084C242.341 17.084 242.869 16.8713 243.236 16.446C243.617 16.006 243.808 15.4267 243.808 14.708C243.808 13.9747 243.536 13.2853 242.994 12.64C242.466 11.9947 241.842 11.672 241.124 11.672C240.405 11.672 239.862 11.8847 239.496 12.31C239.144 12.7207 238.968 13.322 238.968 14.114ZM252.715 21H247.963V20.384H248.315C248.711 20.384 248.96 20.318 249.063 20.186C249.18 20.054 249.239 19.8413 249.239 19.548V12.948C249.239 12.6693 249.144 12.4713 248.953 12.354C248.777 12.222 248.447 12.156 247.963 12.156V11.54C248.256 11.54 248.696 11.4373 249.283 11.232C249.884 11.012 250.339 10.8067 250.647 10.616L251.043 10.528V13.256C251.571 12.0973 252.172 11.3347 252.847 10.968C253.522 10.5867 254.519 10.396 255.839 10.396L255.707 12.948H255.047C255.047 12.7427 254.966 12.5447 254.805 12.354C254.658 12.1633 254.416 12.068 254.079 12.068C253.346 12.068 252.656 12.464 252.011 13.256C251.366 14.048 251.043 14.8107 251.043 15.544V19.416C251.043 19.6507 251.05 19.8193 251.065 19.922C251.094 20.0247 251.182 20.1273 251.329 20.23C251.476 20.3327 251.703 20.384 252.011 20.384H252.715V21ZM261.038 21.308C259.747 21.308 258.669 20.824 257.804 19.856C256.938 18.888 256.506 17.7587 256.506 16.468C256.506 14.8253 257.122 13.41 258.354 12.222C259.6 11.034 260.913 10.44 262.292 10.44C263.67 10.44 264.778 10.9313 265.614 11.914C266.464 12.882 266.89 14.004 266.89 15.28C266.89 16.8787 266.296 18.2867 265.108 19.504C263.934 20.7067 262.578 21.308 261.038 21.308ZM258.046 15.28C258.046 16.644 258.456 17.7807 259.278 18.69C260.114 19.5847 261.045 20.032 262.072 20.032C263.113 20.032 263.927 19.6433 264.514 18.866C265.1 18.0887 265.394 17.2893 265.394 16.468C265.394 15.2213 265.005 14.136 264.228 13.212C263.465 12.2733 262.534 11.804 261.434 11.804C260.334 11.804 259.49 12.178 258.904 12.926C258.332 13.6593 258.046 14.444 258.046 15.28ZM277.727 21.22L277.331 21.308L275.131 14.884L273.415 19.9C273.268 19.944 273.041 20.1567 272.733 20.538C272.425 20.9193 272.271 21.1467 272.271 21.22L271.875 21.308L268.751 12.376C268.619 12.0387 268.472 11.7967 268.311 11.65C268.164 11.4887 267.93 11.408 267.607 11.408H267.299V10.748H271.435L271.391 11.408C270.804 11.408 270.511 11.584 270.511 11.936C270.511 12.0533 270.57 12.288 270.687 12.64L272.799 18.624L274.603 13.388L274.207 12.376C273.958 11.7307 273.635 11.408 273.239 11.408V10.748H277.155V11.408H276.979C276.334 11.408 276.011 11.584 276.011 11.936C276.011 11.9947 276.055 12.156 276.143 12.42L278.255 18.624L280.411 12.332C280.528 12.0533 280.587 11.8553 280.587 11.738C280.587 11.606 280.506 11.518 280.345 11.474C280.198 11.43 279.854 11.408 279.311 11.408H279.047V10.748H283.183V11.408H282.963C282.479 11.408 282.142 11.4813 281.951 11.628C281.76 11.7747 281.599 12.0533 281.467 12.464L278.915 19.9C278.783 19.9 278.548 20.1053 278.211 20.516C277.888 20.912 277.727 21.1467 277.727 21.22ZM286.21 5.688C286.547 5.688 286.804 5.798 286.98 6.018C287.17 6.238 287.266 6.524 287.266 6.876C287.266 7.21333 287.126 7.49933 286.848 7.734C286.569 7.954 286.261 8.064 285.924 8.064C285.601 8.064 285.344 7.954 285.154 7.734C284.978 7.514 284.89 7.24267 284.89 6.92C284.89 6.58267 285.029 6.29667 285.308 6.062C285.586 5.81267 285.887 5.688 286.21 5.688ZM288.63 21H284.186V20.384H284.538C284.934 20.384 285.183 20.318 285.286 20.186C285.403 20.054 285.462 19.8413 285.462 19.548V12.948C285.462 12.6693 285.366 12.4713 285.176 12.354C285 12.222 284.67 12.156 284.186 12.156V11.54C284.479 11.54 284.919 11.4373 285.506 11.232C286.107 11.012 286.562 10.8067 286.87 10.616L287.266 10.528V19.416C287.266 19.6507 287.273 19.8193 287.288 19.922C287.317 20.0247 287.405 20.1273 287.552 20.23C287.698 20.3327 287.926 20.384 288.234 20.384H288.63V21ZM301.527 21H297.743V20.384H297.831C297.992 20.384 298.124 20.3033 298.227 20.142C298.344 19.9807 298.403 19.7827 298.403 19.548V13.96C298.403 13.3 298.241 12.8013 297.919 12.464C297.611 12.112 297.171 11.936 296.599 11.936C295.777 11.936 295.051 12.376 294.421 13.256C293.79 14.136 293.475 14.796 293.475 15.236V19.416C293.475 19.6507 293.482 19.8193 293.497 19.922C293.526 20.0247 293.614 20.1273 293.761 20.23C293.907 20.3327 294.135 20.384 294.443 20.384H294.839V21H290.395V20.384H290.747C291.143 20.384 291.392 20.318 291.495 20.186C291.612 20.054 291.671 19.8413 291.671 19.548V12.948C291.671 12.6693 291.575 12.4713 291.385 12.354C291.209 12.222 290.879 12.156 290.395 12.156V11.54C290.688 11.54 291.128 11.4373 291.715 11.232C292.316 11.012 292.771 10.8067 293.079 10.616L293.475 10.528V13.344C293.812 12.42 294.333 11.7087 295.037 11.21C295.741 10.6967 296.599 10.44 297.611 10.44C298.139 10.44 298.586 10.5573 298.953 10.792C299.319 11.0267 299.583 11.3273 299.745 11.694C300.023 12.3247 300.163 12.948 300.163 13.564V19.504C300.163 19.7093 300.177 19.8633 300.207 19.966C300.28 20.2447 300.588 20.384 301.131 20.384H301.527V21ZM306.258 19.856L308.458 19.768C310.13 19.768 311.289 19.9513 311.934 20.318C312.579 20.67 312.902 21.242 312.902 22.034C312.902 22.826 312.675 23.5153 312.22 24.102C311.765 24.6887 311.171 25.1507 310.438 25.488C308.986 26.1333 307.431 26.456 305.774 26.456C304.806 26.456 304.021 26.2213 303.42 25.752C302.819 25.2973 302.518 24.7253 302.518 24.036C302.518 22.4227 303.207 21.3813 304.586 20.912C304.249 20.912 303.97 20.8387 303.75 20.692C303.545 20.5453 303.442 20.384 303.442 20.208C303.442 20.0173 303.471 19.834 303.53 19.658C303.589 19.482 303.684 19.306 303.816 19.13C303.948 18.9393 304.058 18.7927 304.146 18.69C304.249 18.5727 304.41 18.404 304.63 18.184L305.07 17.744C304.278 17.04 303.882 16.0867 303.882 14.884C303.882 13.6667 304.337 12.618 305.246 11.738C306.155 10.8433 307.153 10.396 308.238 10.396C308.913 10.396 309.514 10.5867 310.042 10.968C310.658 10.264 311.685 9.912 313.122 9.912L312.902 11.804C312.814 11.672 312.66 11.5473 312.44 11.43C312.22 11.298 312.051 11.232 311.934 11.232C311.538 11.232 311.127 11.364 310.702 11.628C311.259 12.2733 311.538 13.0507 311.538 13.96C311.538 15.104 311.098 16.1233 310.218 17.018C309.338 17.9127 308.341 18.36 307.226 18.36C306.654 18.36 306.185 18.2573 305.818 18.052C305.202 18.7853 304.894 19.24 304.894 19.416C304.894 19.7093 305.349 19.856 306.258 19.856ZM307.358 20.956H305.818C305.363 21.2347 305.063 21.4473 304.916 21.594C304.769 21.7407 304.645 21.88 304.542 22.012C304.439 22.144 304.351 22.276 304.278 22.408C304.131 22.716 304.058 23.0607 304.058 23.442C304.058 23.8233 304.234 24.1533 304.586 24.432C305.187 24.872 306.023 25.092 307.094 25.092C308.179 25.092 309.184 24.9087 310.108 24.542C311.032 24.1753 311.494 23.6693 311.494 23.024C311.494 22.3787 311.12 21.8727 310.372 21.506C309.624 21.1393 308.619 20.956 307.358 20.956ZM305.29 14.114C305.29 14.8913 305.561 15.5807 306.104 16.182C306.661 16.7833 307.285 17.084 307.974 17.084C308.663 17.084 309.191 16.8713 309.558 16.446C309.939 16.006 310.13 15.4267 310.13 14.708C310.13 13.9747 309.859 13.2853 309.316 12.64C308.788 11.9947 308.165 11.672 307.446 11.672C306.727 11.672 306.185 11.8847 305.818 12.31C305.466 12.7207 305.29 13.322 305.29 14.114Z" fill="white"/>
<path d="M29.9754 47.944L30.2834 45.084L31.0314 45.128C31.0314 45.9347 31.5081 46.5873 32.4614 47.086C33.4294 47.57 34.5221 47.812 35.7394 47.812C36.9714 47.812 37.8954 47.6287 38.5114 47.262C39.1274 46.8807 39.4354 46.404 39.4354 45.832C39.4354 44.864 38.9221 43.9987 37.8954 43.236C37.4701 42.928 37.0228 42.6567 36.5534 42.422C35.4828 41.8647 34.8081 41.5127 34.5294 41.366C34.2654 41.2047 33.9648 41.0433 33.6274 40.882C33.2901 40.7207 32.9748 40.552 32.6814 40.376C32.4028 40.1853 32.1021 39.958 31.7794 39.694C31.0461 39.1073 30.6794 38.4547 30.6794 37.736C30.6794 37.0027 30.8041 36.3647 31.0534 35.822C31.3174 35.2793 31.6401 34.854 32.0214 34.546C32.4174 34.238 32.8794 33.9813 33.4074 33.776C34.3021 33.4533 35.2994 33.292 36.3994 33.292C37.5141 33.292 38.5848 33.5707 39.6114 34.128L39.3474 36.68H38.5994C38.5994 35.3013 37.4408 34.612 35.1234 34.612C34.0528 34.612 33.2461 34.7807 32.7034 35.118C32.1754 35.4553 31.9114 35.9173 31.9114 36.504C31.9114 37.4427 33.4368 38.572 36.4874 39.892C38.4968 40.7573 39.7801 41.718 40.3374 42.774C40.6161 43.302 40.7554 43.8813 40.7554 44.512C40.7554 46.0373 40.1394 47.218 38.9074 48.054C37.6901 48.89 36.2161 49.308 34.4854 49.308C32.7548 49.308 31.2514 48.8533 29.9754 47.944ZM46.5591 49.308C45.2685 49.308 44.1905 48.824 43.3251 47.856C42.4598 46.888 42.0271 45.7587 42.0271 44.468C42.0271 42.8253 42.6431 41.41 43.8751 40.222C45.1218 39.034 46.4345 38.44 47.8131 38.44C49.1918 38.44 50.2991 38.9313 51.1351 39.914C51.9858 40.882 52.4111 42.004 52.4111 43.28C52.4111 44.8787 51.8171 46.2867 50.6291 47.504C49.4558 48.7067 48.0991 49.308 46.5591 49.308ZM43.5671 43.28C43.5671 44.644 43.9778 45.7807 44.7991 46.69C45.6351 47.5847 46.5665 48.032 47.5931 48.032C48.6345 48.032 49.4485 47.6433 50.0351 46.866C50.6218 46.0887 50.9151 45.2893 50.9151 44.468C50.9151 43.2213 50.5265 42.136 49.7491 41.212C48.9865 40.2733 48.0551 39.804 46.9551 39.804C45.8551 39.804 45.0118 40.178 44.4251 40.926C43.8531 41.6593 43.5671 42.444 43.5671 43.28ZM62.4062 46.316L62.8022 46.712C61.8635 48.4427 60.1768 49.308 57.7422 49.308C56.6128 49.308 55.6448 48.8093 54.8382 47.812C54.0462 46.8147 53.6502 45.7 53.6502 44.468C53.6502 43.676 53.8408 42.884 54.2222 42.092C54.6182 41.2853 55.0215 40.6473 55.4322 40.178C55.8575 39.694 56.4295 39.2833 57.1482 38.946C57.8815 38.6087 58.6515 38.44 59.4582 38.44C60.2648 38.44 61.1008 38.6013 61.9662 38.924L61.8342 40.948H61.1742C61.1742 40.5667 60.9322 40.2513 60.4482 40.002C59.9788 39.7527 59.4508 39.628 58.8642 39.628C58.2775 39.628 57.7495 39.7233 57.2802 39.914C56.8108 40.09 56.4515 40.31 56.2022 40.574C55.9675 40.838 55.7768 41.1533 55.6302 41.52C55.3955 42.0627 55.2782 42.664 55.2782 43.324C55.2782 44.468 55.6375 45.524 56.3562 46.492C57.0748 47.46 57.9475 47.944 58.9742 47.944C59.7075 47.944 60.3822 47.7973 60.9982 47.504C61.6288 47.196 62.0982 46.8 62.4062 46.316ZM66.3602 33.688C66.6975 33.688 66.9542 33.798 67.1302 34.018C67.3208 34.238 67.4162 34.524 67.4162 34.876C67.4162 35.2133 67.2768 35.4993 66.9982 35.734C66.7195 35.954 66.4115 36.064 66.0742 36.064C65.7515 36.064 65.4948 35.954 65.3042 35.734C65.1282 35.514 65.0402 35.2427 65.0402 34.92C65.0402 34.5827 65.1795 34.2967 65.4582 34.062C65.7368 33.8127 66.0375 33.688 66.3602 33.688ZM68.7802 49H64.3362V48.384H64.6882C65.0842 48.384 65.3335 48.318 65.4362 48.186C65.5535 48.054 65.6122 47.8413 65.6122 47.548V40.948C65.6122 40.6693 65.5168 40.4713 65.3262 40.354C65.1502 40.222 64.8202 40.156 64.3362 40.156V39.54C64.6295 39.54 65.0695 39.4373 65.6562 39.232C66.2575 39.012 66.7122 38.8067 67.0202 38.616L67.4162 38.528V47.416C67.4162 47.6507 67.4235 47.8193 67.4382 47.922C67.4675 48.0247 67.5555 48.1273 67.7022 48.23C67.8488 48.3327 68.0762 48.384 68.3842 48.384H68.7802V49ZM80.0491 49H76.8811V47.24C76.1478 48.032 75.5391 48.5747 75.0551 48.868C74.5711 49.1613 73.9111 49.308 73.0751 49.308C72.2538 49.308 71.6085 49.1173 71.1391 48.736C70.6845 48.34 70.4571 47.79 70.4571 47.086C70.4571 46.382 70.7578 45.7 71.3591 45.04C71.9751 44.3653 72.6865 43.8593 73.4931 43.522C74.3145 43.17 75.0331 42.906 75.6491 42.73C76.2651 42.5393 76.6758 42.444 76.8811 42.444V41.96C76.8811 40.5813 76.3091 39.892 75.1651 39.892C74.3731 39.892 73.6325 40.0607 72.9431 40.398C72.2685 40.7353 71.7625 41.168 71.4251 41.696L70.9851 41.3C71.9678 39.3933 73.6691 38.44 76.0891 38.44C76.7051 38.44 77.2111 38.6087 77.6071 38.946C78.0178 39.2687 78.2891 39.65 78.4211 40.09C78.5678 40.53 78.6411 41.0213 78.6411 41.564V47.504C78.6411 47.6947 78.6558 47.8413 78.6851 47.944C78.7145 48.0467 78.8025 48.1493 78.9491 48.252C79.1105 48.34 79.3451 48.384 79.6531 48.384H80.0491V49ZM76.8811 46.008V43.324C75.7371 43.544 74.6738 43.984 73.6911 44.644C72.7085 45.304 72.2171 46.0227 72.2171 46.8C72.2171 47.108 72.3638 47.3793 72.6571 47.614C72.9651 47.834 73.3391 47.944 73.7791 47.944C74.2338 47.944 74.7691 47.746 75.3851 47.35C76.0011 46.9393 76.4998 46.492 76.8811 46.008ZM86.028 49H81.628V48.384H81.936C82.2587 48.384 82.4933 48.318 82.64 48.186C82.7867 48.0393 82.86 47.7973 82.86 47.46V34.48C82.86 34.2013 82.7647 34.0033 82.574 33.886C82.3833 33.754 82.0533 33.688 81.584 33.688V33.072C81.8773 33.072 82.3247 32.9913 82.926 32.83C83.542 32.6687 83.9893 32.5 84.268 32.324L84.664 32.236V47.416C84.664 47.6507 84.6713 47.8193 84.686 47.922C84.7153 48.0247 84.8033 48.1273 84.95 48.23C85.0967 48.3327 85.324 48.384 85.632 48.384H86.028V49ZM105.087 49H93.295V48.384H94.043C94.4684 48.384 94.747 48.3033 94.879 48.142C95.0257 47.9807 95.099 47.724 95.099 47.372V35.228C95.099 34.9347 95.0037 34.6927 94.813 34.502C94.637 34.3113 94.3804 34.216 94.043 34.216H93.295V33.6H104.911L105.087 36.636L104.471 36.768C104.471 36.24 104.258 35.734 103.833 35.25C103.408 34.766 102.814 34.524 102.051 34.524H98.047C97.607 34.524 97.321 34.612 97.189 34.788C97.057 34.9493 96.991 35.184 96.991 35.492V40.508H101.391C101.611 40.508 101.78 40.5007 101.897 40.486C102.014 40.4567 102.117 40.376 102.205 40.244C102.308 40.112 102.359 39.9213 102.359 39.672V38.66H103.019V43.236H102.359V42.312C102.359 41.9453 102.278 41.7107 102.117 41.608C101.956 41.4907 101.714 41.432 101.391 41.432H96.991V47.108C96.991 47.416 97.057 47.658 97.189 47.834C97.321 47.9953 97.607 48.076 98.047 48.076H102.227C103.004 48.076 103.686 47.8267 104.273 47.328C104.874 46.8293 105.19 46.3453 105.219 45.876L105.835 45.964L105.087 49ZM118.587 49H114.803V48.384H114.891C115.053 48.384 115.185 48.3033 115.287 48.142C115.405 47.9807 115.463 47.7827 115.463 47.548V41.96C115.463 41.3 115.302 40.8013 114.979 40.464C114.671 40.112 114.231 39.936 113.659 39.936C112.838 39.936 112.112 40.376 111.481 41.256C110.851 42.136 110.535 42.796 110.535 43.236V47.416C110.535 47.6507 110.543 47.8193 110.557 47.922C110.587 48.0247 110.675 48.1273 110.821 48.23C110.968 48.3327 111.195 48.384 111.503 48.384H111.899V49H107.455V48.384H107.807C108.203 48.384 108.453 48.318 108.555 48.186C108.673 48.054 108.731 47.8413 108.731 47.548V40.948C108.731 40.6693 108.636 40.4713 108.445 40.354C108.269 40.222 107.939 40.156 107.455 40.156V39.54C107.749 39.54 108.189 39.4373 108.775 39.232C109.377 39.012 109.831 38.8067 110.139 38.616L110.535 38.528V41.344C110.873 40.42 111.393 39.7087 112.097 39.21C112.801 38.6967 113.659 38.44 114.671 38.44C115.199 38.44 115.647 38.5573 116.013 38.792C116.38 39.0267 116.644 39.3273 116.805 39.694C117.084 40.3247 117.223 40.948 117.223 41.564V47.504C117.223 47.7093 117.238 47.8633 117.267 47.966C117.341 48.2447 117.649 48.384 118.191 48.384H118.587V49ZM126.443 47.636L126.619 48.164C125.519 48.9267 124.316 49.308 123.011 49.308C122.541 49.308 122.138 49.1393 121.801 48.802C121.463 48.4647 121.295 48.0173 121.295 47.46V39.672H120.019V38.748H120.503C120.987 38.748 121.434 38.4547 121.845 37.868C122.27 37.2813 122.483 36.7387 122.483 36.24H123.055V38.748H126.047V39.672H123.891C123.333 39.672 123.055 39.936 123.055 40.464V46.756C123.055 47.724 123.407 48.208 124.111 48.208C124.903 48.208 125.68 48.0173 126.443 47.636ZM132.424 49H127.672V48.384H128.024C128.42 48.384 128.669 48.318 128.772 48.186C128.889 48.054 128.948 47.8413 128.948 47.548V40.948C128.948 40.6693 128.853 40.4713 128.662 40.354C128.486 40.222 128.156 40.156 127.672 40.156V39.54C127.965 39.54 128.405 39.4373 128.992 39.232C129.593 39.012 130.048 38.8067 130.356 38.616L130.752 38.528V41.256C131.28 40.0973 131.881 39.3347 132.556 38.968C133.231 38.5867 134.228 38.396 135.548 38.396L135.416 40.948H134.756C134.756 40.7427 134.675 40.5447 134.514 40.354C134.367 40.1633 134.125 40.068 133.788 40.068C133.055 40.068 132.365 40.464 131.72 41.256C131.075 42.048 130.752 42.8107 130.752 43.544V47.416C130.752 47.6507 130.759 47.8193 130.774 47.922C130.803 48.0247 130.891 48.1273 131.038 48.23C131.185 48.3327 131.412 48.384 131.72 48.384H132.424V49ZM144.971 46.316L145.367 46.712C144.428 48.4427 142.741 49.308 140.307 49.308C139.177 49.308 138.209 48.8093 137.403 47.812C136.611 46.8147 136.215 45.7 136.215 44.468C136.215 42.8107 136.75 41.3953 137.821 40.222C138.906 39.034 140.219 38.44 141.759 38.44C142.492 38.44 143.137 38.6527 143.695 39.078C144.692 39.8553 145.191 40.86 145.191 42.092C145.191 42.268 145.154 42.4807 145.081 42.73C145.022 42.9793 144.971 43.104 144.927 43.104L137.843 43.324C137.843 44.468 138.202 45.524 138.921 46.492C139.639 47.46 140.512 47.944 141.539 47.944C142.272 47.944 142.947 47.7973 143.563 47.504C144.193 47.196 144.663 46.8 144.971 46.316ZM138.063 42.444L143.211 42.224C143.24 42.224 143.255 42.092 143.255 41.828C143.255 41.0653 143.027 40.5227 142.573 40.2C142.133 39.8773 141.517 39.716 140.725 39.716C139.947 39.716 139.309 39.958 138.811 40.442C138.312 40.926 138.063 41.5933 138.063 42.444ZM151.321 54.148H146.877V53.488H147.141C147.464 53.488 147.698 53.4367 147.845 53.334C148.006 53.2313 148.094 53.1287 148.109 53.026C148.138 52.9233 148.153 52.7547 148.153 52.52V41.124C148.153 40.4493 147.728 40.112 146.877 40.112V39.54C147.156 39.54 147.596 39.43 148.197 39.21C148.798 38.9753 149.238 38.7627 149.517 38.572L149.913 38.528V41.3C150.221 40.464 150.72 39.782 151.409 39.254C152.098 38.7113 152.949 38.44 153.961 38.44C154.973 38.44 155.772 38.77 156.359 39.43C156.96 40.09 157.261 40.9773 157.261 42.092C157.261 44.16 156.718 45.8833 155.633 47.262C154.548 48.626 153.228 49.308 151.673 49.308C151.13 49.308 150.544 49.1613 149.913 48.868V52.608C149.913 52.8133 149.928 52.9673 149.957 53.07C150.03 53.3487 150.338 53.488 150.881 53.488H151.321V54.148ZM149.913 43.104V47.02C149.972 47.108 150.06 47.2253 150.177 47.372C150.294 47.5187 150.536 47.7093 150.903 47.944C151.284 48.1787 151.673 48.296 152.069 48.296C153.14 48.296 154.027 47.79 154.731 46.778C155.45 45.766 155.809 44.4827 155.809 42.928C155.809 42.0627 155.538 41.3513 154.995 40.794C154.467 40.222 153.8 39.936 152.993 39.936C152.201 39.936 151.49 40.3833 150.859 41.278C150.228 42.158 149.913 42.7667 149.913 43.104ZM163.705 49H158.953V48.384H159.305C159.701 48.384 159.951 48.318 160.053 48.186C160.171 48.054 160.229 47.8413 160.229 47.548V40.948C160.229 40.6693 160.134 40.4713 159.943 40.354C159.767 40.222 159.437 40.156 158.953 40.156V39.54C159.247 39.54 159.687 39.4373 160.273 39.232C160.875 39.012 161.329 38.8067 161.637 38.616L162.033 38.528V41.256C162.561 40.0973 163.163 39.3347 163.837 38.968C164.512 38.5867 165.509 38.396 166.829 38.396L166.697 40.948H166.037C166.037 40.7427 165.957 40.5447 165.795 40.354C165.649 40.1633 165.407 40.068 165.069 40.068C164.336 40.068 163.647 40.464 163.001 41.256C162.356 42.048 162.033 42.8107 162.033 43.544V47.416C162.033 47.6507 162.041 47.8193 162.055 47.922C162.085 48.0247 162.173 48.1273 162.319 48.23C162.466 48.3327 162.693 48.384 163.001 48.384H163.705V49ZM176.252 46.316L176.648 46.712C175.709 48.4427 174.023 49.308 171.588 49.308C170.459 49.308 169.491 48.8093 168.684 47.812C167.892 46.8147 167.496 45.7 167.496 44.468C167.496 42.8107 168.031 41.3953 169.102 40.222C170.187 39.034 171.5 38.44 173.04 38.44C173.773 38.44 174.419 38.6527 174.976 39.078C175.973 39.8553 176.472 40.86 176.472 42.092C176.472 42.268 176.435 42.4807 176.362 42.73C176.303 42.9793 176.252 43.104 176.208 43.104L169.124 43.324C169.124 44.468 169.483 45.524 170.202 46.492C170.921 47.46 171.793 47.944 172.82 47.944C173.553 47.944 174.228 47.7973 174.844 47.504C175.475 47.196 175.944 46.8 176.252 46.316ZM169.344 42.444L174.492 42.224C174.521 42.224 174.536 42.092 174.536 41.828C174.536 41.0653 174.309 40.5227 173.854 40.2C173.414 39.8773 172.798 39.716 172.006 39.716C171.229 39.716 170.591 39.958 170.092 40.442C169.593 40.926 169.344 41.5933 169.344 42.444ZM189.593 49H185.809V48.384H185.897C186.058 48.384 186.19 48.3033 186.293 48.142C186.41 47.9807 186.469 47.7827 186.469 47.548V41.96C186.469 41.3 186.308 40.8013 185.985 40.464C185.677 40.112 185.237 39.936 184.665 39.936C183.844 39.936 183.118 40.376 182.487 41.256C181.856 42.136 181.541 42.796 181.541 43.236V47.416C181.541 47.6507 181.548 47.8193 181.563 47.922C181.592 48.0247 181.68 48.1273 181.827 48.23C181.974 48.3327 182.201 48.384 182.509 48.384H182.905V49H178.461V48.384H178.813C179.209 48.384 179.458 48.318 179.561 48.186C179.678 48.054 179.737 47.8413 179.737 47.548V40.948C179.737 40.6693 179.642 40.4713 179.451 40.354C179.275 40.222 178.945 40.156 178.461 40.156V39.54C178.754 39.54 179.194 39.4373 179.781 39.232C180.382 39.012 180.837 38.8067 181.145 38.616L181.541 38.528V41.344C181.878 40.42 182.399 39.7087 183.103 39.21C183.807 38.6967 184.665 38.44 185.677 38.44C186.205 38.44 186.652 38.5573 187.019 38.792C187.386 39.0267 187.65 39.3273 187.811 39.694C188.09 40.3247 188.229 40.948 188.229 41.564V47.504C188.229 47.7093 188.244 47.8633 188.273 47.966C188.346 48.2447 188.654 48.384 189.197 48.384H189.593V49ZM199.756 46.316L200.152 46.712C199.213 48.4427 197.526 49.308 195.092 49.308C193.962 49.308 192.994 48.8093 192.188 47.812C191.396 46.8147 191 45.7 191 44.468C191 42.8107 191.535 41.3953 192.606 40.222C193.691 39.034 195.004 38.44 196.544 38.44C197.277 38.44 197.922 38.6527 198.48 39.078C199.477 39.8553 199.976 40.86 199.976 42.092C199.976 42.268 199.939 42.4807 199.866 42.73C199.807 42.9793 199.756 43.104 199.712 43.104L192.628 43.324C192.628 44.468 192.987 45.524 193.706 46.492C194.424 47.46 195.297 47.944 196.324 47.944C197.057 47.944 197.732 47.7973 198.348 47.504C198.978 47.196 199.448 46.8 199.756 46.316ZM192.848 42.444L197.996 42.224C198.025 42.224 198.04 42.092 198.04 41.828C198.04 41.0653 197.812 40.5227 197.358 40.2C196.918 39.8773 196.302 39.716 195.51 39.716C194.732 39.716 194.094 39.958 193.596 40.442C193.097 40.926 192.848 41.5933 192.848 42.444ZM212.789 49H209.621V46.404C209.284 47.328 208.763 48.0467 208.059 48.56C207.355 49.0587 206.497 49.308 205.485 49.308C204.957 49.308 204.51 49.1907 204.143 48.956C203.776 48.7213 203.512 48.4207 203.351 48.054C203.072 47.4233 202.933 46.8 202.933 46.184V40.948C202.933 40.2733 202.508 39.936 201.657 39.936V39.32C201.95 39.32 202.39 39.2393 202.977 39.078C203.578 38.9167 204.018 38.748 204.297 38.572L204.693 38.528V45.788C204.693 46.448 204.847 46.954 205.155 47.306C205.478 47.6433 205.925 47.812 206.497 47.812C207.318 47.812 208.044 47.372 208.675 46.492C209.306 45.612 209.621 44.952 209.621 44.512V40.948C209.621 40.2733 209.196 39.936 208.345 39.936V39.32C208.668 39.32 209.122 39.2393 209.709 39.078C210.31 38.9167 210.75 38.748 211.029 38.572L211.425 38.528V47.504C211.425 47.7093 211.44 47.8633 211.469 47.966C211.542 48.2447 211.85 48.384 212.393 48.384H212.789V49ZM219.264 49H214.512V48.384H214.864C215.26 48.384 215.509 48.318 215.612 48.186C215.729 48.054 215.788 47.8413 215.788 47.548V40.948C215.788 40.6693 215.693 40.4713 215.502 40.354C215.326 40.222 214.996 40.156 214.512 40.156V39.54C214.805 39.54 215.245 39.4373 215.832 39.232C216.433 39.012 216.888 38.8067 217.196 38.616L217.592 38.528V41.256C218.12 40.0973 218.721 39.3347 219.396 38.968C220.071 38.5867 221.068 38.396 222.388 38.396L222.256 40.948H221.596C221.596 40.7427 221.515 40.5447 221.354 40.354C221.207 40.1633 220.965 40.068 220.628 40.068C219.895 40.068 219.205 40.464 218.56 41.256C217.915 42.048 217.592 42.8107 217.592 43.544V47.416C217.592 47.6507 217.599 47.8193 217.614 47.922C217.643 48.0247 217.731 48.1273 217.878 48.23C218.025 48.3327 218.252 48.384 218.56 48.384H219.264V49ZM223.428 48.384L223.648 46.008L224.264 46.052C224.264 46.5507 224.587 47.0273 225.232 47.482C225.877 47.9367 226.574 48.164 227.322 48.164C228.862 48.164 229.632 47.6947 229.632 46.756C229.632 46.2867 229.434 45.8687 229.038 45.502C228.642 45.1353 228.165 44.8347 227.608 44.6C227.051 44.3507 226.493 44.1013 225.936 43.852C225.379 43.588 224.902 43.2507 224.506 42.84C224.11 42.4147 223.912 41.9307 223.912 41.388C223.912 39.4813 225.32 38.528 228.136 38.528C228.767 38.528 229.456 38.704 230.204 39.056L230.072 41.256H229.544C229.544 40.8453 229.302 40.4493 228.818 40.068C228.349 39.6867 227.835 39.496 227.278 39.496C226.721 39.496 226.244 39.606 225.848 39.826C225.467 40.046 225.276 40.376 225.276 40.816C225.276 41.2413 225.474 41.5933 225.87 41.872C226.266 42.1507 226.743 42.378 227.3 42.554C227.857 42.73 228.415 42.928 228.972 43.148C229.529 43.368 230.006 43.7273 230.402 44.226C230.798 44.7247 230.996 45.348 230.996 46.096C230.996 46.844 230.754 47.4673 230.27 47.966C229.405 48.8607 228.151 49.308 226.508 49.308C225.232 49.308 224.205 49 223.428 48.384ZM243.925 49H240.097V48.384H240.229C240.376 48.384 240.5 48.3107 240.603 48.164C240.706 48.0027 240.757 47.7973 240.757 47.548V41.96C240.757 40.6107 240.17 39.936 238.997 39.936C238.161 39.936 237.42 40.376 236.775 41.256C236.144 42.136 235.829 42.796 235.829 43.236V47.416C235.829 47.636 235.844 47.8047 235.873 47.922C235.946 48.23 236.254 48.384 236.797 48.384H237.237V49H232.793V48.384H233.101C233.497 48.384 233.754 48.318 233.871 48.186C234.003 48.0393 234.069 47.8267 234.069 47.548V34.48C234.069 34.2013 233.974 34.0033 233.783 33.886C233.592 33.754 233.262 33.688 232.793 33.688V33.072C233.101 33.072 233.556 32.9913 234.157 32.83C234.758 32.6687 235.184 32.5 235.433 32.324L235.829 32.236V41.344C236.592 39.408 237.97 38.44 239.965 38.44C240.493 38.44 240.94 38.5573 241.307 38.792C241.688 39.0267 241.96 39.3273 242.121 39.694C242.414 40.31 242.561 40.9333 242.561 41.564V47.504C242.561 47.7093 242.576 47.8633 242.605 47.966C242.664 48.2447 242.957 48.384 243.485 48.384H243.925V49ZM247.624 33.688C247.961 33.688 248.218 33.798 248.394 34.018C248.585 34.238 248.68 34.524 248.68 34.876C248.68 35.2133 248.541 35.4993 248.262 35.734C247.983 35.954 247.675 36.064 247.338 36.064C247.015 36.064 246.759 35.954 246.568 35.734C246.392 35.514 246.304 35.2427 246.304 34.92C246.304 34.5827 246.443 34.2967 246.722 34.062C247.001 33.8127 247.301 33.688 247.624 33.688ZM250.044 49H245.6V48.384H245.952C246.348 48.384 246.597 48.318 246.7 48.186C246.817 48.054 246.876 47.8413 246.876 47.548V40.948C246.876 40.6693 246.781 40.4713 246.59 40.354C246.414 40.222 246.084 40.156 245.6 40.156V39.54C245.893 39.54 246.333 39.4373 246.92 39.232C247.521 39.012 247.976 38.8067 248.284 38.616L248.68 38.528V47.416C248.68 47.6507 248.687 47.8193 248.702 47.922C248.731 48.0247 248.819 48.1273 248.966 48.23C249.113 48.3327 249.34 48.384 249.648 48.384H250.044V49ZM256.165 54.148H251.721V53.488H251.985C252.307 53.488 252.542 53.4367 252.689 53.334C252.85 53.2313 252.938 53.1287 252.953 53.026C252.982 52.9233 252.997 52.7547 252.997 52.52V41.124C252.997 40.4493 252.571 40.112 251.721 40.112V39.54C251.999 39.54 252.439 39.43 253.041 39.21C253.642 38.9753 254.082 38.7627 254.361 38.572L254.757 38.528V41.3C255.065 40.464 255.563 39.782 256.253 39.254C256.942 38.7113 257.793 38.44 258.805 38.44C259.817 38.44 260.616 38.77 261.203 39.43C261.804 40.09 262.105 40.9773 262.105 42.092C262.105 44.16 261.562 45.8833 260.477 47.262C259.391 48.626 258.071 49.308 256.517 49.308C255.974 49.308 255.387 49.1613 254.757 48.868V52.608C254.757 52.8133 254.771 52.9673 254.801 53.07C254.874 53.3487 255.182 53.488 255.725 53.488H256.165V54.148ZM254.757 43.104V47.02C254.815 47.108 254.903 47.2253 255.021 47.372C255.138 47.5187 255.38 47.7093 255.747 47.944C256.128 48.1787 256.517 48.296 256.913 48.296C257.983 48.296 258.871 47.79 259.575 46.778C260.293 45.766 260.653 44.4827 260.653 42.928C260.653 42.0627 260.381 41.3513 259.839 40.794C259.311 40.222 258.643 39.936 257.837 39.936C257.045 39.936 256.333 40.3833 255.703 41.278C255.072 42.158 254.757 42.7667 254.757 43.104ZM282.389 44.688L282.917 45.48C281.729 46.8293 280.541 47.8267 279.353 48.472C278.165 49.1173 276.889 49.44 275.525 49.44C273.838 49.44 272.335 48.6993 271.015 47.218C269.709 45.7367 269.057 44.0573 269.057 42.18C269.057 39.8187 269.944 37.736 271.719 35.932C273.508 34.1133 275.583 33.204 277.945 33.204C278.883 33.204 280.057 33.4387 281.465 33.908L281.201 36.988H280.453C280.453 36.4453 280.269 36.02 279.903 35.712C279.536 35.404 279.118 35.2133 278.649 35.14C278.194 35.052 277.622 35.008 276.933 35.008C275.231 35.008 273.75 35.5067 272.489 36.504C271.227 37.5013 270.597 38.8653 270.597 40.596C270.597 41.8573 270.831 42.9793 271.301 43.962C271.77 44.9447 272.357 45.7 273.061 46.228C274.454 47.2547 275.789 47.768 277.065 47.768C277.857 47.768 278.737 47.5113 279.705 46.998C280.673 46.4847 281.567 45.7147 282.389 44.688ZM288.731 49.308C287.44 49.308 286.362 48.824 285.497 47.856C284.632 46.888 284.199 45.7587 284.199 44.468C284.199 42.8253 284.815 41.41 286.047 40.222C287.294 39.034 288.606 38.44 289.985 38.44C291.364 38.44 292.471 38.9313 293.307 39.914C294.158 40.882 294.583 42.004 294.583 43.28C294.583 44.8787 293.989 46.2867 292.801 47.504C291.628 48.7067 290.271 49.308 288.731 49.308ZM285.739 43.28C285.739 44.644 286.15 45.7807 286.971 46.69C287.807 47.5847 288.738 48.032 289.765 48.032C290.806 48.032 291.62 47.6433 292.207 46.866C292.794 46.0887 293.087 45.2893 293.087 44.468C293.087 43.2213 292.698 42.136 291.921 41.212C291.158 40.2733 290.227 39.804 289.127 39.804C288.027 39.804 287.184 40.178 286.597 40.926C286.025 41.6593 285.739 42.444 285.739 43.28ZM313.598 49H309.77V48.384H309.858C310.019 48.384 310.151 48.3033 310.254 48.142C310.371 47.9807 310.43 47.7827 310.43 47.548V41.96C310.43 41.3733 310.283 40.8893 309.99 40.508C309.711 40.1267 309.345 39.936 308.89 39.936C308.45 39.936 308.039 40.0387 307.658 40.244C307.291 40.4493 306.991 40.6987 306.756 40.992C306.536 41.2853 306.338 41.5933 306.162 41.916C305.869 42.488 305.722 42.9133 305.722 43.192V47.504C305.722 48.0907 306.045 48.384 306.69 48.384H307.086V49H303.258V48.384H303.39C303.522 48.384 303.639 48.3033 303.742 48.142C303.859 47.9807 303.918 47.7827 303.918 47.548V41.96C303.918 41.3733 303.779 40.8893 303.5 40.508C303.221 40.1267 302.84 39.936 302.356 39.936C301.887 39.936 301.439 40.09 301.014 40.398C300.589 40.706 300.251 41.0653 300.002 41.476C299.503 42.312 299.254 42.8987 299.254 43.236V47.416C299.254 47.6507 299.261 47.8193 299.276 47.922C299.305 48.0247 299.393 48.1273 299.54 48.23C299.687 48.3327 299.914 48.384 300.222 48.384H300.618V49H296.174V48.384H296.526C296.922 48.384 297.171 48.318 297.274 48.186C297.391 48.054 297.45 47.8413 297.45 47.548V40.948C297.45 40.6693 297.355 40.4713 297.164 40.354C296.988 40.222 296.658 40.156 296.174 40.156V39.54C296.467 39.54 296.907 39.4373 297.494 39.232C298.095 39.012 298.55 38.8067 298.858 38.616L299.254 38.528V41.344C299.679 40.3467 300.185 39.6133 300.772 39.144C301.373 38.6747 302.187 38.44 303.214 38.44C303.683 38.44 304.094 38.5427 304.446 38.748C304.798 38.9387 305.062 39.1953 305.238 39.518C305.531 40.09 305.693 40.6987 305.722 41.344C306.059 40.3613 306.536 39.6353 307.152 39.166C307.768 38.682 308.597 38.44 309.638 38.44C310.166 38.44 310.613 38.5573 310.98 38.792C311.347 39.0267 311.611 39.3273 311.772 39.694C312.051 40.3247 312.19 40.948 312.19 41.564V47.504C312.19 47.7093 312.205 47.8633 312.234 47.966C312.307 48.2447 312.615 48.384 313.158 48.384H313.598V49ZM319.673 54.148H315.229V53.488H315.493C315.815 53.488 316.05 53.4367 316.197 53.334C316.358 53.2313 316.446 53.1287 316.461 53.026C316.49 52.9233 316.505 52.7547 316.505 52.52V41.124C316.505 40.4493 316.079 40.112 315.229 40.112V39.54C315.507 39.54 315.947 39.43 316.549 39.21C317.15 38.9753 317.59 38.7627 317.869 38.572L318.265 38.528V41.3C318.573 40.464 319.071 39.782 319.761 39.254C320.45 38.7113 321.301 38.44 322.313 38.44C323.325 38.44 324.124 38.77 324.711 39.43C325.312 40.09 325.613 40.9773 325.613 42.092C325.613 44.16 325.07 45.8833 323.985 47.262C322.899 48.626 321.579 49.308 320.025 49.308C319.482 49.308 318.895 49.1613 318.265 48.868V52.608C318.265 52.8133 318.279 52.9673 318.309 53.07C318.382 53.3487 318.69 53.488 319.233 53.488H319.673V54.148ZM318.265 43.104V47.02C318.323 47.108 318.411 47.2253 318.529 47.372C318.646 47.5187 318.888 47.7093 319.255 47.944C319.636 48.1787 320.025 48.296 320.421 48.296C321.491 48.296 322.379 47.79 323.083 46.778C323.801 45.766 324.161 44.4827 324.161 42.928C324.161 42.0627 323.889 41.3513 323.347 40.794C322.819 40.222 322.151 39.936 321.345 39.936C320.553 39.936 319.841 40.3833 319.211 41.278C318.58 42.158 318.265 42.7667 318.265 43.104ZM335.644 46.316L336.04 46.712C335.102 48.4427 333.415 49.308 330.98 49.308C329.851 49.308 328.883 48.8093 328.076 47.812C327.284 46.8147 326.888 45.7 326.888 44.468C326.888 42.8107 327.424 41.3953 328.494 40.222C329.58 39.034 330.892 38.44 332.432 38.44C333.166 38.44 333.811 38.6527 334.368 39.078C335.366 39.8553 335.864 40.86 335.864 42.092C335.864 42.268 335.828 42.4807 335.754 42.73C335.696 42.9793 335.644 43.104 335.6 43.104L328.516 43.324C328.516 44.468 328.876 45.524 329.594 46.492C330.313 47.46 331.186 47.944 332.212 47.944C332.946 47.944 333.62 47.7973 334.236 47.504C334.867 47.196 335.336 46.8 335.644 46.316ZM328.736 42.444L333.884 42.224C333.914 42.224 333.928 42.092 333.928 41.828C333.928 41.0653 333.701 40.5227 333.246 40.2C332.806 39.8773 332.19 39.716 331.398 39.716C330.621 39.716 329.983 39.958 329.484 40.442C328.986 40.926 328.736 41.5933 328.736 42.444ZM344.058 47.636L344.234 48.164C343.134 48.9267 341.931 49.308 340.626 49.308C340.156 49.308 339.753 49.1393 339.416 48.802C339.078 48.4647 338.91 48.0173 338.91 47.46V39.672H337.634V38.748H338.118C338.602 38.748 339.049 38.4547 339.46 37.868C339.885 37.2813 340.098 36.7387 340.098 36.24H340.67V38.748H343.662V39.672H341.506C340.948 39.672 340.67 39.936 340.67 40.464V46.756C340.67 47.724 341.022 48.208 341.726 48.208C342.518 48.208 343.295 48.0173 344.058 47.636ZM347.311 33.688C347.649 33.688 347.905 33.798 348.081 34.018C348.272 34.238 348.367 34.524 348.367 34.876C348.367 35.2133 348.228 35.4993 347.949 35.734C347.671 35.954 347.363 36.064 347.025 36.064C346.703 36.064 346.446 35.954 346.255 35.734C346.079 35.514 345.991 35.2427 345.991 34.92C345.991 34.5827 346.131 34.2967 346.409 34.062C346.688 33.8127 346.989 33.688 347.311 33.688ZM349.731 49H345.287V48.384H345.639C346.035 48.384 346.285 48.318 346.387 48.186C346.505 48.054 346.563 47.8413 346.563 47.548V40.948C346.563 40.6693 346.468 40.4713 346.277 40.354C346.101 40.222 345.771 40.156 345.287 40.156V39.54C345.581 39.54 346.021 39.4373 346.607 39.232C347.209 39.012 347.663 38.8067 347.971 38.616L348.367 38.528V47.416C348.367 47.6507 348.375 47.8193 348.389 47.922C348.419 48.0247 348.507 48.1273 348.653 48.23C348.8 48.3327 349.027 48.384 349.335 48.384H349.731V49ZM357.7 47.636L357.876 48.164C356.776 48.9267 355.574 49.308 354.268 49.308C353.799 49.308 353.396 49.1393 353.058 48.802C352.721 48.4647 352.552 48.0173 352.552 47.46V39.672H351.276V38.748H351.76C352.244 38.748 352.692 38.4547 353.102 37.868C353.528 37.2813 353.74 36.7387 353.74 36.24H354.312V38.748H357.304V39.672H355.148C354.591 39.672 354.312 39.936 354.312 40.464V46.756C354.312 47.724 354.664 48.208 355.368 48.208C356.16 48.208 356.938 48.0173 357.7 47.636ZM360.954 33.688C361.291 33.688 361.548 33.798 361.724 34.018C361.915 34.238 362.01 34.524 362.01 34.876C362.01 35.2133 361.871 35.4993 361.592 35.734C361.313 35.954 361.005 36.064 360.668 36.064C360.345 36.064 360.089 35.954 359.898 35.734C359.722 35.514 359.634 35.2427 359.634 34.92C359.634 34.5827 359.773 34.2967 360.052 34.062C360.331 33.8127 360.631 33.688 360.954 33.688ZM363.374 49H358.93V48.384H359.282C359.678 48.384 359.927 48.318 360.03 48.186C360.147 48.054 360.206 47.8413 360.206 47.548V40.948C360.206 40.6693 360.111 40.4713 359.92 40.354C359.744 40.222 359.414 40.156 358.93 40.156V39.54C359.223 39.54 359.663 39.4373 360.25 39.232C360.851 39.012 361.306 38.8067 361.614 38.616L362.01 38.528V47.416C362.01 47.6507 362.017 47.8193 362.032 47.922C362.061 48.0247 362.149 48.1273 362.296 48.23C362.443 48.3327 362.67 48.384 362.978 48.384H363.374V49ZM369.319 49.308C368.028 49.308 366.95 48.824 366.085 47.856C365.22 46.888 364.787 45.7587 364.787 44.468C364.787 42.8253 365.403 41.41 366.635 40.222C367.882 39.034 369.194 38.44 370.573 38.44C371.952 38.44 373.059 38.9313 373.895 39.914C374.746 40.882 375.171 42.004 375.171 43.28C375.171 44.8787 374.577 46.2867 373.389 47.504C372.216 48.7067 370.859 49.308 369.319 49.308ZM366.327 43.28C366.327 44.644 366.738 45.7807 367.559 46.69C368.395 47.5847 369.326 48.032 370.353 48.032C371.394 48.032 372.208 47.6433 372.795 46.866C373.382 46.0887 373.675 45.2893 373.675 44.468C373.675 43.2213 373.286 42.136 372.509 41.212C371.746 40.2733 370.815 39.804 369.715 39.804C368.615 39.804 367.772 40.178 367.185 40.926C366.613 41.6593 366.327 42.444 366.327 43.28ZM387.894 49H384.11V48.384H384.198C384.359 48.384 384.491 48.3033 384.594 48.142C384.711 47.9807 384.77 47.7827 384.77 47.548V41.96C384.77 41.3 384.609 40.8013 384.286 40.464C383.978 40.112 383.538 39.936 382.966 39.936C382.145 39.936 381.419 40.376 380.788 41.256C380.157 42.136 379.842 42.796 379.842 43.236V47.416C379.842 47.6507 379.849 47.8193 379.864 47.922C379.893 48.0247 379.981 48.1273 380.128 48.23C380.275 48.3327 380.502 48.384 380.81 48.384H381.206V49H376.762V48.384H377.114C377.51 48.384 377.759 48.318 377.862 48.186C377.979 48.054 378.038 47.8413 378.038 47.548V40.948C378.038 40.6693 377.943 40.4713 377.752 40.354C377.576 40.222 377.246 40.156 376.762 40.156V39.54C377.055 39.54 377.495 39.4373 378.082 39.232C378.683 39.012 379.138 38.8067 379.446 38.616L379.842 38.528V41.344C380.179 40.42 380.7 39.7087 381.404 39.21C382.108 38.6967 382.966 38.44 383.978 38.44C384.506 38.44 384.953 38.5573 385.32 38.792C385.687 39.0267 385.951 39.3273 386.112 39.694C386.391 40.3247 386.53 40.948 386.53 41.564V47.504C386.53 47.7093 386.545 47.8633 386.574 47.966C386.647 48.2447 386.955 48.384 387.498 48.384H387.894V49Z" fill="white"/>
<path d="M23.1313 82H17.5433V81.384H18.2913C18.7313 81.384 19.0173 81.296 19.1493 81.12C19.2813 80.944 19.3473 80.6947 19.3473 80.372V68.228C19.3473 67.9053 19.2813 67.656 19.1493 67.48C19.0173 67.304 18.7313 67.216 18.2913 67.216H17.5433V66.6H23.1313V67.216H22.2953C21.8553 67.216 21.5693 67.304 21.4373 67.48C21.3053 67.656 21.2393 67.9053 21.2393 68.228V80.372C21.2393 80.6947 21.3053 80.944 21.4373 81.12C21.5693 81.296 21.8553 81.384 22.2953 81.384H23.1313V82ZM29.1369 68.052V80.02C29.9876 80.5187 31.1463 80.768 32.6129 80.768C34.3583 80.768 35.8983 80.2913 37.2329 79.338C37.9076 78.854 38.4429 78.1793 38.8389 77.314C39.2349 76.4487 39.4329 75.4733 39.4329 74.388C39.4329 73.288 39.2129 72.3127 38.7729 71.462C38.3476 70.6113 37.7903 69.9293 37.1009 69.416C35.7076 68.36 34.2703 67.832 32.7889 67.832L29.1369 68.052ZM28.8289 66.6L34.2849 66.38C36.3236 66.38 37.9296 67.04 39.1029 68.36C40.2909 69.68 40.8849 71.4473 40.8849 73.662C40.8849 75.862 40.0343 77.8053 38.3329 79.492C36.6463 81.164 34.6663 82 32.3929 82H25.4409V81.34H26.1889C26.6289 81.34 26.9149 81.2593 27.0469 81.098C27.1789 80.9367 27.2449 80.6947 27.2449 80.372V68.228C27.2449 67.8907 27.1716 67.6487 27.0249 67.502C26.8929 67.3407 26.6143 67.26 26.1889 67.26H25.4409V66.6H28.8289ZM54.906 82H43.114V81.384H43.862C44.2873 81.384 44.566 81.3033 44.698 81.142C44.8447 80.9807 44.918 80.724 44.918 80.372V68.228C44.918 67.9347 44.8227 67.6927 44.632 67.502C44.456 67.3113 44.1993 67.216 43.862 67.216H43.114V66.6H54.73L54.906 69.636L54.29 69.768C54.29 69.24 54.0773 68.734 53.652 68.25C53.2267 67.766 52.6327 67.524 51.87 67.524H47.866C47.426 67.524 47.14 67.612 47.008 67.788C46.876 67.9493 46.81 68.184 46.81 68.492V73.508H51.21C51.43 73.508 51.5987 73.5007 51.716 73.486C51.8333 73.4567 51.936 73.376 52.024 73.244C52.1267 73.112 52.178 72.9213 52.178 72.672V71.66H52.838V76.236H52.178V75.312C52.178 74.9453 52.0973 74.7107 51.936 74.608C51.7747 74.4907 51.5327 74.432 51.21 74.432H46.81V80.108C46.81 80.416 46.876 80.658 47.008 80.834C47.14 80.9953 47.426 81.076 47.866 81.076H52.046C52.8233 81.076 53.5053 80.8267 54.092 80.328C54.6933 79.8293 55.0087 79.3453 55.038 78.876L55.654 78.964L54.906 82ZM72.7183 82H67.0863V81.384H67.7903C68.4356 81.384 68.7583 81.1787 68.7583 80.768C68.7583 80.7093 68.6849 80.46 68.5383 80.02L67.0423 76.104H61.4983L60.0463 79.844C60.0463 79.8733 59.9949 80.0567 59.8923 80.394C59.7896 80.7167 59.7383 80.944 59.7383 81.076C59.7383 81.1933 59.8189 81.274 59.9803 81.318C60.1416 81.362 60.4863 81.384 61.0143 81.384H61.3663V82H57.0543V81.384H57.3623C57.8463 81.384 58.1983 81.3033 58.4183 81.142C58.6383 80.966 58.8289 80.68 58.9903 80.284L63.8303 67.656C63.9036 67.6413 64.0356 67.5387 64.2263 67.348C64.4169 67.1427 64.5929 66.9373 64.7543 66.732C64.9156 66.512 64.9963 66.3873 64.9963 66.358C64.9963 66.3287 64.9889 66.3067 64.9743 66.292L65.2823 66.204L70.6943 80.372C70.8556 80.7093 71.0169 80.966 71.1783 81.142C71.3543 81.3033 71.6036 81.384 71.9263 81.384H72.7183V82ZM66.6463 75.18L64.2703 68.888L61.8503 75.18H66.6463ZM82.1652 82H76.4452V81.384H77.3252C77.7652 81.384 78.0439 81.3033 78.1612 81.142C78.2785 80.966 78.3372 80.724 78.3372 80.416V68.536C78.3372 68.316 78.3225 68.1473 78.2932 68.03C78.2639 67.898 78.1685 67.7807 78.0072 67.678C77.8605 67.5753 77.6332 67.524 77.3252 67.524H76.0052C75.2279 67.524 74.6265 67.766 74.2012 68.25C73.7905 68.7193 73.5705 69.2253 73.5412 69.768L72.9252 69.636L73.1452 66.6H85.5092L85.7292 69.636L85.1132 69.768C85.0839 69.24 84.8565 68.734 84.4312 68.25C84.0059 67.766 83.4119 67.524 82.6492 67.524H81.3292C81.0065 67.524 80.7645 67.5827 80.6032 67.7C80.4419 67.8027 80.3465 67.9127 80.3172 68.03C80.2879 68.1473 80.2732 68.316 80.2732 68.536V80.416C80.2732 80.6213 80.2879 80.7827 80.3172 80.9C80.3465 81.0173 80.4419 81.1273 80.6032 81.23C80.7645 81.3327 81.0065 81.384 81.3292 81.384H82.1652V82ZM99.2669 82H87.4749V81.384H88.2229C88.6483 81.384 88.9269 81.3033 89.0589 81.142C89.2056 80.9807 89.2789 80.724 89.2789 80.372V68.228C89.2789 67.9347 89.1836 67.6927 88.9929 67.502C88.8169 67.3113 88.5603 67.216 88.2229 67.216H87.4749V66.6H99.0909L99.2669 69.636L98.6509 69.768C98.6509 69.24 98.4383 68.734 98.0129 68.25C97.5876 67.766 96.9936 67.524 96.2309 67.524H92.2269C91.7869 67.524 91.5009 67.612 91.3689 67.788C91.2369 67.9493 91.1709 68.184 91.1709 68.492V73.508H95.5709C95.7909 73.508 95.9596 73.5007 96.0769 73.486C96.1943 73.4567 96.2969 73.376 96.3849 73.244C96.4876 73.112 96.5389 72.9213 96.5389 72.672V71.66H97.1989V76.236H96.5389V75.312C96.5389 74.9453 96.4583 74.7107 96.2969 74.608C96.1356 74.4907 95.8936 74.432 95.5709 74.432H91.1709V80.108C91.1709 80.416 91.2369 80.658 91.3689 80.834C91.5009 80.9953 91.7869 81.076 92.2269 81.076H96.4069C97.1843 81.076 97.8663 80.8267 98.4529 80.328C99.0543 79.8293 99.3696 79.3453 99.3989 78.876L100.015 78.964L99.2669 82ZM111.799 87.456H110.787V65.016H111.799V87.456ZM128.521 82H122.933V81.384H123.681C124.121 81.384 124.407 81.296 124.539 81.12C124.671 80.944 124.737 80.6947 124.737 80.372V68.228C124.737 67.9053 124.671 67.656 124.539 67.48C124.407 67.304 124.121 67.216 123.681 67.216H122.933V66.6H128.521V67.216H127.685C127.245 67.216 126.959 67.304 126.827 67.48C126.695 67.656 126.629 67.9053 126.629 68.228V80.372C126.629 80.6947 126.695 80.944 126.827 81.12C126.959 81.296 127.245 81.384 127.685 81.384H128.521V82ZM143.634 82.352L133.91 69.328V80.372C133.91 81.0173 134.365 81.34 135.274 81.34H136.11V82H130.83V81.34H131.534C132.444 81.34 132.898 81.0173 132.898 80.372V68.228C132.898 67.5827 132.444 67.26 131.534 67.26H130.83V66.6H134.306L143.37 78.788V68.228C143.37 67.5827 142.93 67.26 142.05 67.26H141.302V66.6H146.582V67.26H145.746C144.837 67.26 144.382 67.5827 144.382 68.228V81.912C144.221 81.912 144.045 81.978 143.854 82.11C143.678 82.2567 143.605 82.3373 143.634 82.352ZM161.737 82.352L152.013 69.328V80.372C152.013 81.0173 152.468 81.34 153.377 81.34H154.213V82H148.933V81.34H149.637C150.546 81.34 151.001 81.0173 151.001 80.372V68.228C151.001 67.5827 150.546 67.26 149.637 67.26H148.933V66.6H152.409L161.473 78.788V68.228C161.473 67.5827 161.033 67.26 160.153 67.26H159.405V66.6H164.685V67.26H163.849C162.94 67.26 162.485 67.5827 162.485 68.228V81.912C162.324 81.912 162.148 81.978 161.957 82.11C161.781 82.2567 161.708 82.3373 161.737 82.352ZM173.68 82.44C171.759 82.44 170.153 81.6993 168.862 80.218C167.586 78.7367 166.948 77.028 166.948 75.092C166.948 73.8893 167.212 72.7307 167.74 71.616C168.268 70.5013 168.943 69.5553 169.764 68.778C170.6 68.0007 171.517 67.3773 172.514 66.908C173.526 66.4387 174.501 66.204 175.44 66.204C177.347 66.204 178.945 66.9447 180.236 68.426C181.527 69.9073 182.172 71.616 182.172 73.552C182.172 74.9893 181.783 76.3973 181.006 77.776C180.229 79.14 179.173 80.262 177.838 81.142C176.518 82.0073 175.132 82.44 173.68 82.44ZM175.044 80.768C176.643 80.768 177.985 80.1813 179.07 79.008C180.17 77.8347 180.72 76.3827 180.72 74.652C180.72 72.9213 180.082 71.3667 178.806 69.988C177.545 68.6093 176.012 67.92 174.208 67.92C172.668 67.92 171.311 68.4773 170.138 69.592C168.979 70.692 168.4 72.012 168.4 73.552C168.4 75.5467 169.009 77.248 170.226 78.656C171.458 80.064 173.064 80.768 175.044 80.768ZM190.805 82.308L190.453 82.44L185.041 68.228C184.909 67.9053 184.755 67.6633 184.579 67.502C184.417 67.3407 184.175 67.26 183.853 67.26H183.105V66.6H188.693V67.26H187.945C187.329 67.26 187.021 67.4507 187.021 67.832C187.021 68.008 187.094 68.272 187.241 68.624L191.509 79.712L195.909 68.272L196.129 67.612C196.129 67.4653 196.041 67.37 195.865 67.326C195.689 67.282 195.337 67.26 194.809 67.26H194.325V66.6H198.681V67.26H198.417C197.918 67.26 197.551 67.3407 197.317 67.502C197.097 67.6633 196.921 67.9493 196.789 68.36L191.949 80.944C191.421 81.3253 191.039 81.78 190.805 82.308ZM213.303 82H207.671V81.384H208.375C209.021 81.384 209.343 81.1787 209.343 80.768C209.343 80.7093 209.27 80.46 209.123 80.02L207.627 76.104H202.083L200.631 79.844C200.631 79.8733 200.58 80.0567 200.477 80.394C200.375 80.7167 200.323 80.944 200.323 81.076C200.323 81.1933 200.404 81.274 200.565 81.318C200.727 81.362 201.071 81.384 201.599 81.384H201.951V82H197.639V81.384H197.947C198.431 81.384 198.783 81.3033 199.003 81.142C199.223 80.966 199.414 80.68 199.575 80.284L204.415 67.656C204.489 67.6413 204.621 67.5387 204.811 67.348C205.002 67.1427 205.178 66.9373 205.339 66.732C205.501 66.512 205.581 66.3873 205.581 66.358C205.581 66.3287 205.574 66.3067 205.559 66.292L205.867 66.204L211.279 80.372C211.441 80.7093 211.602 80.966 211.763 81.142C211.939 81.3033 212.189 81.384 212.511 81.384H213.303V82ZM207.231 75.18L204.855 68.888L202.435 75.18H207.231ZM222.75 82H217.03V81.384H217.91C218.35 81.384 218.629 81.3033 218.746 81.142C218.864 80.966 218.922 80.724 218.922 80.416V68.536C218.922 68.316 218.908 68.1473 218.878 68.03C218.849 67.898 218.754 67.7807 218.592 67.678C218.446 67.5753 218.218 67.524 217.91 67.524H216.59C215.813 67.524 215.212 67.766 214.786 68.25C214.376 68.7193 214.156 69.2253 214.126 69.768L213.51 69.636L213.73 66.6H226.094L226.314 69.636L225.698 69.768C225.669 69.24 225.442 68.734 225.016 68.25C224.591 67.766 223.997 67.524 223.234 67.524H221.914C221.592 67.524 221.35 67.5827 221.188 67.7C221.027 67.8027 220.932 67.9127 220.902 68.03C220.873 68.1473 220.858 68.316 220.858 68.536V80.416C220.858 80.6213 220.873 80.7827 220.902 80.9C220.932 81.0173 221.027 81.1273 221.188 81.23C221.35 81.3327 221.592 81.384 221.914 81.384H222.75V82ZM239.852 82H228.06V81.384H228.808C229.233 81.384 229.512 81.3033 229.644 81.142C229.791 80.9807 229.864 80.724 229.864 80.372V68.228C229.864 67.9347 229.769 67.6927 229.578 67.502C229.402 67.3113 229.145 67.216 228.808 67.216H228.06V66.6H239.676L239.852 69.636L239.236 69.768C239.236 69.24 239.023 68.734 238.598 68.25C238.173 67.766 237.579 67.524 236.816 67.524H232.812C232.372 67.524 232.086 67.612 231.954 67.788C231.822 67.9493 231.756 68.184 231.756 68.492V73.508H236.156C236.376 73.508 236.545 73.5007 236.662 73.486C236.779 73.4567 236.882 73.376 236.97 73.244C237.073 73.112 237.124 72.9213 237.124 72.672V71.66H237.784V76.236H237.124V75.312C237.124 74.9453 237.043 74.7107 236.882 74.608C236.721 74.4907 236.479 74.432 236.156 74.432H231.756V80.108C231.756 80.416 231.822 80.658 231.954 80.834C232.086 80.9953 232.372 81.076 232.812 81.076H236.992C237.769 81.076 238.451 80.8267 239.038 80.328C239.639 79.8293 239.955 79.3453 239.984 78.876L240.6 78.964L239.852 82ZM252.384 87.456H251.372V65.016H252.384V87.456ZM269.106 82H263.518V81.384H264.266C264.706 81.384 264.992 81.296 265.124 81.12C265.256 80.944 265.322 80.6947 265.322 80.372V68.228C265.322 67.9053 265.256 67.656 265.124 67.48C264.992 67.304 264.706 67.216 264.266 67.216H263.518V66.6H269.106V67.216H268.27C267.83 67.216 267.544 67.304 267.412 67.48C267.28 67.656 267.214 67.9053 267.214 68.228V80.372C267.214 80.6947 267.28 80.944 267.412 81.12C267.544 81.296 267.83 81.384 268.27 81.384H269.106V82ZM280.832 81.78C280.817 81.78 280.78 81.78 280.722 81.78C280.663 81.78 280.436 81.9267 280.04 82.22L274.98 68.976L273.924 80.504C273.894 80.7387 274.004 80.9367 274.254 81.098C274.503 81.2593 274.848 81.34 275.288 81.34H276.212V82H270.932V81.34H271.636C272.486 81.34 272.941 81.0173 273 80.372L274.1 68.228C274.129 67.9493 274.026 67.722 273.792 67.546C273.572 67.3553 273.22 67.26 272.736 67.26H272.032V66.6H276.168L280.876 79.008L285.628 66.6H289.588V67.216H288.708C288.004 67.216 287.652 67.4873 287.652 68.03C287.652 68.074 287.652 68.1253 287.652 68.184L288.664 80.372C288.693 80.7093 288.774 80.9587 288.906 81.12C289.052 81.2667 289.309 81.34 289.676 81.34H290.556V82H284.924V81.34H285.672C286.082 81.34 286.361 81.274 286.508 81.142C286.654 81.01 286.728 80.8707 286.728 80.724C286.728 80.5627 286.728 80.4453 286.728 80.372L285.76 68.844L280.832 81.78ZM296.644 74.212L297.7 74.256C298.8 74.256 299.812 74.08 300.736 73.728C301.278 73.5227 301.711 73.2 302.034 72.76C302.371 72.32 302.54 71.7773 302.54 71.132C302.54 68.8147 301.146 67.656 298.36 67.656L296.072 67.744V80.416C296.072 80.6213 296.086 80.7827 296.116 80.9C296.145 81.0173 296.24 81.1273 296.402 81.23C296.563 81.3327 296.805 81.384 297.128 81.384H297.964V82H292.376V81.384H293.08C293.402 81.384 293.644 81.3327 293.806 81.23C293.967 81.1273 294.062 81.0173 294.092 80.9C294.121 80.7827 294.136 80.6213 294.136 80.416V68.228C294.136 67.8907 294.062 67.6487 293.916 67.502C293.784 67.3407 293.505 67.26 293.08 67.26H292.376V66.6H295.764L299.944 66.38C301.264 66.38 302.327 66.666 303.134 67.238C303.94 67.81 304.344 68.6167 304.344 69.658C304.344 70.6847 304.102 71.5867 303.618 72.364C303.148 73.1267 302.562 73.6987 301.858 74.08C300.523 74.784 299.328 75.136 298.272 75.136C297.656 75.136 297.172 75.1213 296.82 75.092L296.644 74.212ZM317.995 82H306.203V81.34H306.951C307.391 81.34 307.677 81.2593 307.809 81.098C307.941 80.9367 308.007 80.6947 308.007 80.372V68.228C308.007 67.9053 307.941 67.6633 307.809 67.502C307.677 67.3407 307.391 67.26 306.951 67.26H306.203V66.6H311.791V67.26H310.955C310.515 67.26 310.229 67.3407 310.097 67.502C309.965 67.6633 309.899 67.9053 309.899 68.228V80.064C309.899 80.3867 309.965 80.636 310.097 80.812C310.229 80.988 310.515 81.076 310.955 81.076H315.135C315.912 81.076 316.594 80.8267 317.181 80.328C317.782 79.8147 318.083 79.316 318.083 78.832L318.743 78.964L317.995 82ZM332.274 82H320.482V81.384H321.23C321.655 81.384 321.934 81.3033 322.066 81.142C322.212 80.9807 322.286 80.724 322.286 80.372V68.228C322.286 67.9347 322.19 67.6927 322 67.502C321.824 67.3113 321.567 67.216 321.23 67.216H320.482V66.6H332.098L332.274 69.636L331.658 69.768C331.658 69.24 331.445 68.734 331.02 68.25C330.594 67.766 330 67.524 329.238 67.524H325.234C324.794 67.524 324.508 67.612 324.376 67.788C324.244 67.9493 324.178 68.184 324.178 68.492V73.508H328.578C328.798 73.508 328.966 73.5007 329.084 73.486C329.201 73.4567 329.304 73.376 329.392 73.244C329.494 73.112 329.546 72.9213 329.546 72.672V71.66H330.206V76.236H329.546V75.312C329.546 74.9453 329.465 74.7107 329.304 74.608C329.142 74.4907 328.9 74.432 328.578 74.432H324.178V80.108C324.178 80.416 324.244 80.658 324.376 80.834C324.508 80.9953 324.794 81.076 325.234 81.076H329.414C330.191 81.076 330.873 80.8267 331.46 80.328C332.061 79.8293 332.376 79.3453 332.406 78.876L333.022 78.964L332.274 82ZM344.52 81.78C344.505 81.78 344.468 81.78 344.41 81.78C344.351 81.78 344.124 81.9267 343.728 82.22L338.668 68.976L337.612 80.504C337.582 80.7387 337.692 80.9367 337.942 81.098C338.191 81.2593 338.536 81.34 338.976 81.34H339.9V82H334.62V81.34H335.324C336.174 81.34 336.629 81.0173 336.688 80.372L337.788 68.228C337.817 67.9493 337.714 67.722 337.48 67.546C337.26 67.3553 336.908 67.26 336.424 67.26H335.72V66.6H339.856L344.564 79.008L349.316 66.6H353.276V67.216H352.396C351.692 67.216 351.34 67.4873 351.34 68.03C351.34 68.074 351.34 68.1253 351.34 68.184L352.352 80.372C352.381 80.7093 352.462 80.9587 352.594 81.12C352.74 81.2667 352.997 81.34 353.364 81.34H354.244V82H348.612V81.34H349.36C349.77 81.34 350.049 81.274 350.196 81.142C350.342 81.01 350.416 80.8707 350.416 80.724C350.416 80.5627 350.416 80.4453 350.416 80.372L349.448 68.844L344.52 81.78ZM367.856 82H356.064V81.384H356.812C357.237 81.384 357.516 81.3033 357.648 81.142C357.795 80.9807 357.868 80.724 357.868 80.372V68.228C357.868 67.9347 357.773 67.6927 357.582 67.502C357.406 67.3113 357.149 67.216 356.812 67.216H356.064V66.6H367.68L367.856 69.636L367.24 69.768C367.24 69.24 367.027 68.734 366.602 68.25C366.177 67.766 365.583 67.524 364.82 67.524H360.816C360.376 67.524 360.09 67.612 359.958 67.788C359.826 67.9493 359.76 68.184 359.76 68.492V73.508H364.16C364.38 73.508 364.549 73.5007 364.666 73.486C364.783 73.4567 364.886 73.376 364.974 73.244C365.077 73.112 365.128 72.9213 365.128 72.672V71.66H365.788V76.236H365.128V75.312C365.128 74.9453 365.047 74.7107 364.886 74.608C364.725 74.4907 364.483 74.432 364.16 74.432H359.76V80.108C359.76 80.416 359.826 80.658 359.958 80.834C360.09 80.9953 360.376 81.076 360.816 81.076H364.996C365.773 81.076 366.455 80.8267 367.042 80.328C367.643 79.8293 367.959 79.3453 367.988 78.876L368.604 78.964L367.856 82ZM383.49 82.352L373.766 69.328V80.372C373.766 81.0173 374.221 81.34 375.13 81.34H375.966V82H370.686V81.34H371.39C372.3 81.34 372.754 81.0173 372.754 80.372V68.228C372.754 67.5827 372.3 67.26 371.39 67.26H370.686V66.6H374.162L383.226 78.788V68.228C383.226 67.5827 382.786 67.26 381.906 67.26H381.158V66.6H386.438V67.26H385.602C384.693 67.26 384.238 67.5827 384.238 68.228V81.912C384.077 81.912 383.901 81.978 383.71 82.11C383.534 82.2567 383.461 82.3373 383.49 82.352ZM397.457 82H391.737V81.384H392.617C393.057 81.384 393.336 81.3033 393.453 81.142C393.57 80.966 393.629 80.724 393.629 80.416V68.536C393.629 68.316 393.614 68.1473 393.585 68.03C393.556 67.898 393.46 67.7807 393.299 67.678C393.152 67.5753 392.925 67.524 392.617 67.524H391.297C390.52 67.524 389.918 67.766 389.493 68.25C389.082 68.7193 388.862 69.2253 388.833 69.768L388.217 69.636L388.437 66.6H400.801L401.021 69.636L400.405 69.768C400.376 69.24 400.148 68.734 399.723 68.25C399.298 67.766 398.704 67.524 397.941 67.524H396.621C396.298 67.524 396.056 67.5827 395.895 67.7C395.734 67.8027 395.638 67.9127 395.609 68.03C395.58 68.1473 395.565 68.316 395.565 68.536V80.416C395.565 80.6213 395.58 80.7827 395.609 80.9C395.638 81.0173 395.734 81.1273 395.895 81.23C396.056 81.3327 396.298 81.384 396.621 81.384H397.457V82Z" fill="#00FFFF"/>
</svg>
