<svg width="258" height="240" viewBox="0 0 258 240" fill="none" xmlns="http://www.w3.org/2000/svg">
<circle cx="129" cy="120" r="118.5" fill="white" stroke="url(#paint0_linear_272_824)" stroke-width="3"/>
<circle cx="129" cy="120" r="104" fill="#4F40F6"/>
<g filter="url(#filter0_f_272_824)">
<circle cx="129" cy="120" r="76" fill="white"/>
</g>
<circle cx="247.5" cy="119.5" r="9" fill="white" stroke="url(#paint1_linear_272_824)" stroke-width="3"/>
<circle cx="10.5" cy="119.5" r="9" fill="white" stroke="url(#paint2_linear_272_824)" stroke-width="3"/>
<path d="M115.094 146.528C112.571 146.528 110.312 145.912 108.318 144.68C106.323 143.419 104.754 141.6 103.61 139.224C102.466 136.848 101.894 133.973 101.894 130.6C101.894 127.227 102.466 124.352 103.61 121.976C104.754 119.6 106.323 117.796 108.318 116.564C110.312 115.303 112.571 114.672 115.094 114.672C117.646 114.672 119.904 115.303 121.87 116.564C123.864 117.796 125.434 119.6 126.578 121.976C127.722 124.352 128.294 127.227 128.294 130.6C128.294 133.973 127.722 136.848 126.578 139.224C125.434 141.6 123.864 143.419 121.87 144.68C119.904 145.912 117.646 146.528 115.094 146.528ZM115.094 140.5C116.296 140.5 117.338 140.163 118.218 139.488C119.127 138.813 119.831 137.743 120.33 136.276C120.858 134.809 121.122 132.917 121.122 130.6C121.122 128.283 120.858 126.391 120.33 124.924C119.831 123.457 119.127 122.387 118.218 121.712C117.338 121.037 116.296 120.7 115.094 120.7C113.92 120.7 112.879 121.037 111.97 121.712C111.09 122.387 110.386 123.457 109.858 124.924C109.359 126.391 109.11 128.283 109.11 130.6C109.11 132.917 109.359 134.809 109.858 136.276C110.386 137.743 111.09 138.813 111.97 139.488C112.879 140.163 113.92 140.5 115.094 140.5ZM131.321 146V141.38L143.201 130.16C144.14 129.309 144.829 128.547 145.269 127.872C145.709 127.197 146.002 126.581 146.149 126.024C146.325 125.467 146.413 124.953 146.413 124.484C146.413 123.252 145.988 122.313 145.137 121.668C144.316 120.993 143.098 120.656 141.485 120.656C140.194 120.656 138.992 120.905 137.877 121.404C136.792 121.903 135.868 122.68 135.105 123.736L129.913 120.392C131.086 118.632 132.729 117.239 134.841 116.212C136.953 115.185 139.388 114.672 142.145 114.672C144.433 114.672 146.428 115.053 148.129 115.816C149.86 116.549 151.194 117.591 152.133 118.94C153.101 120.289 153.585 121.903 153.585 123.78C153.585 124.777 153.453 125.775 153.189 126.772C152.954 127.74 152.456 128.767 151.693 129.852C150.96 130.937 149.874 132.155 148.437 133.504L138.581 142.788L137.217 140.192H154.597V146H131.321Z" fill="#2E2E2E"/>
<path d="M113.725 108.128C112.872 108.128 112.056 108 111.277 107.744C110.499 107.477 109.885 107.136 109.437 106.72L110.029 105.472C110.456 105.845 111 106.155 111.661 106.4C112.323 106.645 113.011 106.768 113.725 106.768C114.376 106.768 114.904 106.693 115.309 106.544C115.715 106.395 116.013 106.192 116.205 105.936C116.397 105.669 116.493 105.371 116.493 105.04C116.493 104.656 116.365 104.347 116.109 104.112C115.864 103.877 115.539 103.691 115.133 103.552C114.739 103.403 114.301 103.275 113.821 103.168C113.341 103.061 112.856 102.939 112.365 102.8C111.885 102.651 111.443 102.464 111.037 102.24C110.643 102.016 110.323 101.717 110.077 101.344C109.832 100.96 109.709 100.469 109.709 99.872C109.709 99.296 109.859 98.768 110.157 98.288C110.467 97.7973 110.936 97.408 111.565 97.12C112.205 96.8213 113.016 96.672 113.997 96.672C114.648 96.672 115.293 96.7573 115.933 96.928C116.573 97.0987 117.128 97.344 117.597 97.664L117.069 98.944C116.589 98.624 116.083 98.3947 115.549 98.256C115.016 98.1067 114.499 98.032 113.997 98.032C113.368 98.032 112.851 98.112 112.445 98.272C112.04 98.432 111.741 98.6453 111.549 98.912C111.368 99.1787 111.277 99.4773 111.277 99.808C111.277 100.203 111.4 100.517 111.645 100.752C111.901 100.987 112.227 101.173 112.621 101.312C113.027 101.451 113.469 101.579 113.949 101.696C114.429 101.803 114.909 101.925 115.389 102.064C115.88 102.203 116.323 102.384 116.717 102.608C117.123 102.832 117.448 103.131 117.693 103.504C117.939 103.877 118.061 104.357 118.061 104.944C118.061 105.509 117.907 106.037 117.597 106.528C117.288 107.008 116.808 107.397 116.157 107.696C115.517 107.984 114.707 108.128 113.725 108.128ZM122.467 108V98.192H118.627V96.8H127.891V98.192H124.051V108H122.467ZM131.089 101.632H136.849V102.992H131.089V101.632ZM131.233 106.608H137.761V108H129.633V96.8H137.537V98.192H131.233V106.608ZM140.352 108V96.8H144.72C145.701 96.8 146.539 96.9547 147.232 97.264C147.925 97.5733 148.459 98.0213 148.832 98.608C149.205 99.1947 149.392 99.8933 149.392 100.704C149.392 101.515 149.205 102.213 148.832 102.8C148.459 103.376 147.925 103.824 147.232 104.144C146.539 104.453 145.701 104.608 144.72 104.608H141.232L141.952 103.856V108H140.352ZM141.952 104.016L141.232 103.216H144.672C145.696 103.216 146.469 102.997 146.992 102.56C147.525 102.123 147.792 101.504 147.792 100.704C147.792 99.904 147.525 99.2853 146.992 98.848C146.469 98.4107 145.696 98.192 144.672 98.192H141.232L141.952 97.392V104.016Z" fill="#2E2E2E"/>
<defs>
<filter id="filter0_f_272_824" x="47" y="38" width="164" height="164" filterUnits="userSpaceOnUse" color-interpolation-filters="sRGB">
<feFlood flood-opacity="0" result="BackgroundImageFix"/>
<feBlend mode="normal" in="SourceGraphic" in2="BackgroundImageFix" result="shape"/>
<feGaussianBlur stdDeviation="3" result="effect1_foregroundBlur_272_824"/>
</filter>
<linearGradient id="paint0_linear_272_824" x1="129" y1="0" x2="213.5" y2="236.5" gradientUnits="userSpaceOnUse">
<stop stop-color="#6BCDEE"/>
<stop offset="1" stop-color="#3812E4"/>
</linearGradient>
<linearGradient id="paint1_linear_272_824" x1="247.5" y1="109" x2="254.894" y2="129.694" gradientUnits="userSpaceOnUse">
<stop stop-color="#6BCDEE"/>
<stop offset="1" stop-color="#3812E4"/>
</linearGradient>
<linearGradient id="paint2_linear_272_824" x1="10.5" y1="109" x2="17.8938" y2="129.694" gradientUnits="userSpaceOnUse">
<stop stop-color="#6BCDEE"/>
<stop offset="1" stop-color="#3812E4"/>
</linearGradient>
</defs>
</svg>
