<svg width="258" height="240" viewBox="0 0 258 240" fill="none" xmlns="http://www.w3.org/2000/svg">
<circle cx="129" cy="120" r="118.5" fill="white" stroke="url(#paint0_linear_346_1035)" stroke-width="3"/>
<g filter="url(#filter0_d_346_1035)">
<circle cx="129" cy="120" r="104" fill="url(#paint1_radial_346_1035)"/>
</g>
<g filter="url(#filter1_f_346_1035)">
<circle cx="129" cy="120" r="76" fill="white"/>
</g>
<circle cx="247.5" cy="119.5" r="9" fill="white" stroke="url(#paint2_linear_346_1035)" stroke-width="3"/>
<circle cx="10.5" cy="119.5" r="9" fill="white" stroke="url(#paint3_linear_346_1035)" stroke-width="3"/>
<path d="M117.443 139.572C115.653 139.572 114.025 139.161 112.559 138.34C111.092 137.504 109.823 136.353 108.753 134.886C107.697 133.419 106.883 131.725 106.311 129.804C105.739 127.868 105.453 125.8 105.453 123.6C105.453 121.4 105.739 119.339 106.311 117.418C106.883 115.482 107.697 113.781 108.753 112.314C109.823 110.847 111.092 109.703 112.559 108.882C114.025 108.046 115.653 107.628 117.443 107.628C119.232 107.628 120.86 108.046 122.327 108.882C123.793 109.703 125.047 110.847 126.089 112.314C127.145 113.781 127.959 115.482 128.531 117.418C129.117 119.339 129.411 121.4 129.411 123.6C129.411 125.8 129.117 127.868 128.531 129.804C127.959 131.725 127.145 133.419 126.089 134.886C125.047 136.353 123.793 137.504 122.327 138.34C120.86 139.161 119.232 139.572 117.443 139.572ZM117.443 134.204C119.012 134.204 120.31 133.705 121.337 132.708C122.363 131.711 123.126 130.405 123.625 128.792C124.123 127.179 124.373 125.448 124.373 123.6C124.373 121.649 124.109 119.875 123.581 118.276C123.053 116.663 122.275 115.379 121.249 114.426C120.222 113.473 118.953 112.996 117.443 112.996C116.255 112.996 115.221 113.289 114.341 113.876C113.475 114.448 112.757 115.233 112.185 116.23C111.613 117.227 111.187 118.364 110.909 119.64C110.63 120.901 110.491 122.221 110.491 123.6C110.491 125.433 110.74 127.164 111.239 128.792C111.752 130.405 112.522 131.711 113.549 132.708C114.59 133.705 115.888 134.204 117.443 134.204ZM132.49 139V134.204C133.444 133.485 134.573 132.598 135.878 131.542C137.184 130.471 138.526 129.32 139.904 128.088C141.283 126.841 142.559 125.595 143.732 124.348C144.906 123.101 145.859 121.913 146.592 120.784C147.34 119.655 147.714 118.687 147.714 117.88C147.714 116.985 147.494 116.171 147.054 115.438C146.614 114.69 146.028 114.096 145.294 113.656C144.576 113.216 143.769 112.996 142.874 112.996C141.98 112.996 141.166 113.216 140.432 113.656C139.699 114.096 139.112 114.69 138.672 115.438C138.232 116.171 138.012 116.985 138.012 117.88H132.644C132.644 115.944 133.114 114.206 134.052 112.666C134.991 111.111 136.23 109.887 137.77 108.992C139.325 108.083 141.026 107.628 142.874 107.628C144.752 107.628 146.46 108.09 148 109.014C149.54 109.923 150.772 111.155 151.696 112.71C152.62 114.265 153.082 115.988 153.082 117.88C153.082 118.877 152.899 119.882 152.532 120.894C152.166 121.906 151.652 122.925 150.992 123.952C150.332 124.979 149.555 126.02 148.66 127.076C147.766 128.117 146.776 129.188 145.69 130.288C144.62 131.373 143.49 132.488 142.302 133.632H153.236V139H132.49Z" fill="#2E2E2E"/>
<path d="M118.688 104.208C118.059 104.208 117.456 104.109 116.88 103.912C116.31 103.715 115.808 103.429 115.376 103.056C114.95 102.683 114.643 102.24 114.456 101.728L116.528 100.96C116.592 101.141 116.726 101.312 116.928 101.472C117.131 101.627 117.384 101.755 117.688 101.856C117.992 101.952 118.326 102 118.688 102C119.035 102 119.36 101.949 119.664 101.848C119.974 101.741 120.222 101.595 120.408 101.408C120.6 101.221 120.696 101.003 120.696 100.752C120.696 100.501 120.598 100.293 120.4 100.128C120.203 99.9627 119.95 99.832 119.64 99.736C119.331 99.6347 119.014 99.5573 118.688 99.504C117.883 99.3867 117.16 99.1973 116.52 98.936C115.886 98.6693 115.384 98.304 115.016 97.84C114.648 97.3707 114.464 96.776 114.464 96.056C114.464 95.3627 114.659 94.7573 115.048 94.24C115.443 93.7227 115.96 93.32 116.6 93.032C117.246 92.744 117.942 92.6 118.688 92.6C119.307 92.6 119.904 92.6987 120.48 92.896C121.056 93.0933 121.558 93.3787 121.984 93.752C122.416 94.1253 122.726 94.5733 122.912 95.096L120.84 95.848C120.776 95.6667 120.643 95.4987 120.44 95.344C120.238 95.1893 119.984 95.064 119.68 94.968C119.376 94.872 119.046 94.824 118.688 94.824C118.347 94.8187 118.022 94.8693 117.712 94.976C117.408 95.0827 117.158 95.2293 116.96 95.416C116.768 95.6027 116.672 95.816 116.672 96.056C116.672 96.3707 116.763 96.608 116.944 96.768C117.131 96.928 117.376 97.0427 117.68 97.112C117.984 97.1813 118.32 97.2427 118.688 97.296C119.446 97.408 120.144 97.608 120.784 97.896C121.424 98.1787 121.936 98.5573 122.32 99.032C122.71 99.5013 122.904 100.075 122.904 100.752C122.904 101.445 122.71 102.051 122.32 102.568C121.931 103.085 121.416 103.488 120.776 103.776C120.136 104.064 119.44 104.208 118.688 104.208ZM132.831 92.8V95.008H129.535V104H127.327V95.008H124.031V92.8H132.831ZM134.429 104V92.8H141.517V95.008H136.637V96.896H140.445V99.104H136.637V101.792H141.517V104H134.429ZM143.288 104V92.8H147.416C148.029 92.8 148.581 92.9547 149.072 93.264C149.568 93.5733 149.963 93.9867 150.256 94.504C150.549 95.016 150.696 95.5813 150.696 96.2C150.696 96.8293 150.547 97.4027 150.248 97.92C149.949 98.432 149.549 98.84 149.048 99.144C148.552 99.448 148.008 99.6 147.416 99.6H145.496V104H143.288ZM145.496 97.392H147.168C147.413 97.392 147.635 97.3333 147.832 97.216C148.029 97.0933 148.187 96.9307 148.304 96.728C148.427 96.52 148.488 96.2907 148.488 96.04C148.488 95.7947 148.427 95.5707 148.304 95.368C148.187 95.16 148.029 94.9947 147.832 94.872C147.635 94.7493 147.413 94.688 147.168 94.688H145.496V97.392Z" fill="#2E2E2E"/>
<defs>
<filter id="filter0_d_346_1035" x="21" y="16" width="216" height="216" filterUnits="userSpaceOnUse" color-interpolation-filters="sRGB">
<feFlood flood-opacity="0" result="BackgroundImageFix"/>
<feColorMatrix in="SourceAlpha" type="matrix" values="0 0 0 0 0 0 0 0 0 0 0 0 0 0 0 0 0 0 127 0" result="hardAlpha"/>
<feOffset dy="4"/>
<feGaussianBlur stdDeviation="2"/>
<feComposite in2="hardAlpha" operator="out"/>
<feColorMatrix type="matrix" values="0 0 0 0 0 0 0 0 0 0 0 0 0 0 0 0 0 0 0.25 0"/>
<feBlend mode="normal" in2="BackgroundImageFix" result="effect1_dropShadow_346_1035"/>
<feBlend mode="normal" in="SourceGraphic" in2="effect1_dropShadow_346_1035" result="shape"/>
</filter>
<filter id="filter1_f_346_1035" x="47" y="38" width="164" height="164" filterUnits="userSpaceOnUse" color-interpolation-filters="sRGB">
<feFlood flood-opacity="0" result="BackgroundImageFix"/>
<feBlend mode="normal" in="SourceGraphic" in2="BackgroundImageFix" result="shape"/>
<feGaussianBlur stdDeviation="3" result="effect1_foregroundBlur_346_1035"/>
</filter>
<linearGradient id="paint0_linear_346_1035" x1="129" y1="0" x2="213.5" y2="236.5" gradientUnits="userSpaceOnUse">
<stop stop-color="#6BCDEE"/>
<stop offset="0.475" stop-color="#180D49"/>
<stop offset="0.735" stop-color="#180D49"/>
</linearGradient>
<radialGradient id="paint1_radial_346_1035" cx="0" cy="0" r="1" gradientUnits="userSpaceOnUse" gradientTransform="translate(129 120) rotate(90) scale(104)">
<stop offset="0.765" stop-color="#00BCD4"/>
<stop offset="1" stop-color="#180D49"/>
</radialGradient>
<linearGradient id="paint2_linear_346_1035" x1="247.5" y1="109" x2="254.894" y2="129.694" gradientUnits="userSpaceOnUse">
<stop stop-color="#6BCDEE"/>
<stop offset="0.475" stop-color="#180D49"/>
<stop offset="0.735" stop-color="#180D49"/>
</linearGradient>
<linearGradient id="paint3_linear_346_1035" x1="10.5" y1="109" x2="17.8938" y2="129.694" gradientUnits="userSpaceOnUse">
<stop stop-color="#6BCDEE"/>
<stop offset="0.475" stop-color="#180D49"/>
<stop offset="0.735" stop-color="#180D49"/>
</linearGradient>
</defs>
</svg>
