<svg width="258" height="240" viewBox="0 0 258 240" fill="none" xmlns="http://www.w3.org/2000/svg">
<circle cx="129" cy="120" r="118.5" fill="white" stroke="url(#paint0_linear_346_1035)" stroke-width="3"/>
<g filter="url(#filter0_d_346_1035)">
<circle cx="129" cy="120" r="104" fill="url(#paint1_radial_346_1035)"/>
</g>
<g filter="url(#filter1_f_346_1035)">
<circle cx="129" cy="120" r="76" fill="white"/>
</g>
<circle cx="247.5" cy="119.5" r="9" fill="white" stroke="url(#paint2_linear_346_1035)" stroke-width="3"/>
<circle cx="10.5" cy="119.5" r="9" fill="white" stroke="url(#paint3_linear_346_1035)" stroke-width="3"/>
<path d="M118.753 139.572C116.964 139.572 115.336 139.161 113.869 138.34C112.403 137.504 111.134 136.353 110.063 134.886C109.007 133.419 108.193 131.725 107.621 129.804C107.049 127.868 106.763 125.8 106.763 123.6C106.763 121.4 107.049 119.339 107.621 117.418C108.193 115.482 109.007 113.781 110.063 112.314C111.134 110.847 112.403 109.703 113.869 108.882C115.336 108.046 116.964 107.628 118.753 107.628C120.543 107.628 122.171 108.046 123.637 108.882C125.104 109.703 126.358 110.847 127.399 112.314C128.455 113.781 129.269 115.482 129.841 117.418C130.428 119.339 130.721 121.4 130.721 123.6C130.721 125.8 130.428 127.868 129.841 129.804C129.269 131.725 128.455 133.419 127.399 134.886C126.358 136.353 125.104 137.504 123.637 138.34C122.171 139.161 120.543 139.572 118.753 139.572ZM118.753 134.204C120.323 134.204 121.621 133.705 122.647 132.708C123.674 131.711 124.437 130.405 124.935 128.792C125.434 127.179 125.683 125.448 125.683 123.6C125.683 121.649 125.419 119.875 124.891 118.276C124.363 116.663 123.586 115.379 122.559 114.426C121.533 113.473 120.264 112.996 118.753 112.996C117.565 112.996 116.531 113.289 115.651 113.876C114.786 114.448 114.067 115.233 113.495 116.23C112.923 117.227 112.498 118.364 112.219 119.64C111.941 120.901 111.801 122.221 111.801 123.6C111.801 125.433 112.051 127.164 112.549 128.792C113.063 130.405 113.833 131.711 114.859 132.708C115.901 133.705 117.199 134.204 118.753 134.204ZM143.283 139.572C141.42 139.572 139.741 139.132 138.245 138.252C136.749 137.372 135.561 136.191 134.681 134.71C133.801 133.214 133.361 131.557 133.361 129.738H138.729C138.729 130.559 138.92 131.307 139.301 131.982C139.697 132.657 140.24 133.199 140.929 133.61C141.618 134.006 142.403 134.204 143.283 134.204C144.09 134.204 144.838 134.006 145.527 133.61C146.231 133.199 146.796 132.657 147.221 131.982C147.646 131.307 147.859 130.559 147.859 129.738C147.859 128.667 147.573 127.78 147.001 127.076C146.429 126.357 145.63 125.822 144.603 125.47C143.591 125.118 142.41 124.942 141.061 124.942V120.806C142.88 120.806 144.317 120.461 145.373 119.772C146.444 119.083 146.979 118.071 146.979 116.736C146.979 116.047 146.803 115.416 146.451 114.844C146.099 114.272 145.63 113.817 145.043 113.48C144.471 113.128 143.84 112.952 143.151 112.952C142.447 112.952 141.765 113.128 141.105 113.48C140.445 113.817 139.902 114.272 139.477 114.844C139.066 115.416 138.861 116.047 138.861 116.736H133.493C133.493 115.475 133.75 114.294 134.263 113.194C134.776 112.079 135.48 111.104 136.375 110.268C137.284 109.432 138.311 108.779 139.455 108.31C140.614 107.826 141.824 107.584 143.085 107.584C144.742 107.584 146.275 107.995 147.683 108.816C149.091 109.637 150.22 110.737 151.071 112.116C151.922 113.495 152.347 115.035 152.347 116.736C152.347 117.924 152.068 119.09 151.511 120.234C150.954 121.378 150.162 122.185 149.135 122.654C150.03 122.977 150.778 123.519 151.379 124.282C151.98 125.03 152.435 125.888 152.743 126.856C153.066 127.809 153.227 128.77 153.227 129.738C153.227 131.542 152.772 133.192 151.863 134.688C150.954 136.169 149.744 137.357 148.233 138.252C146.737 139.132 145.087 139.572 143.283 139.572Z" fill="#2E2E2E"/>
<path d="M118.688 104.208C118.059 104.208 117.456 104.109 116.88 103.912C116.31 103.715 115.808 103.429 115.376 103.056C114.95 102.683 114.643 102.24 114.456 101.728L116.528 100.96C116.592 101.141 116.726 101.312 116.928 101.472C117.131 101.627 117.384 101.755 117.688 101.856C117.992 101.952 118.326 102 118.688 102C119.035 102 119.36 101.949 119.664 101.848C119.974 101.741 120.222 101.595 120.408 101.408C120.6 101.221 120.696 101.003 120.696 100.752C120.696 100.501 120.598 100.293 120.4 100.128C120.203 99.9627 119.95 99.832 119.64 99.736C119.331 99.6347 119.014 99.5573 118.688 99.504C117.883 99.3867 117.16 99.1973 116.52 98.936C115.886 98.6693 115.384 98.304 115.016 97.84C114.648 97.3707 114.464 96.776 114.464 96.056C114.464 95.3627 114.659 94.7573 115.048 94.24C115.443 93.7227 115.96 93.32 116.6 93.032C117.246 92.744 117.942 92.6 118.688 92.6C119.307 92.6 119.904 92.6987 120.48 92.896C121.056 93.0933 121.558 93.3787 121.984 93.752C122.416 94.1253 122.726 94.5733 122.912 95.096L120.84 95.848C120.776 95.6667 120.643 95.4987 120.44 95.344C120.238 95.1893 119.984 95.064 119.68 94.968C119.376 94.872 119.046 94.824 118.688 94.824C118.347 94.8187 118.022 94.8693 117.712 94.976C117.408 95.0827 117.158 95.2293 116.96 95.416C116.768 95.6027 116.672 95.816 116.672 96.056C116.672 96.3707 116.763 96.608 116.944 96.768C117.131 96.928 117.376 97.0427 117.68 97.112C117.984 97.1813 118.32 97.2427 118.688 97.296C119.446 97.408 120.144 97.608 120.784 97.896C121.424 98.1787 121.936 98.5573 122.32 99.032C122.71 99.5013 122.904 100.075 122.904 100.752C122.904 101.445 122.71 102.051 122.32 102.568C121.931 103.085 121.416 103.488 120.776 103.776C120.136 104.064 119.44 104.208 118.688 104.208ZM132.831 92.8V95.008H129.535V104H127.327V95.008H124.031V92.8H132.831ZM134.429 104V92.8H141.517V95.008H136.637V96.896H140.445V99.104H136.637V101.792H141.517V104H134.429ZM143.288 104V92.8H147.416C148.029 92.8 148.581 92.9547 149.072 93.264C149.568 93.5733 149.963 93.9867 150.256 94.504C150.549 95.016 150.696 95.5813 150.696 96.2C150.696 96.8293 150.547 97.4027 150.248 97.92C149.949 98.432 149.549 98.84 149.048 99.144C148.552 99.448 148.008 99.6 147.416 99.6H145.496V104H143.288ZM145.496 97.392H147.168C147.413 97.392 147.635 97.3333 147.832 97.216C148.029 97.0933 148.187 96.9307 148.304 96.728C148.427 96.52 148.488 96.2907 148.488 96.04C148.488 95.7947 148.427 95.5707 148.304 95.368C148.187 95.16 148.029 94.9947 147.832 94.872C147.635 94.7493 147.413 94.688 147.168 94.688H145.496V97.392Z" fill="#2E2E2E"/>
<defs>
<filter id="filter0_d_346_1035" x="21" y="16" width="216" height="216" filterUnits="userSpaceOnUse" color-interpolation-filters="sRGB">
<feFlood flood-opacity="0" result="BackgroundImageFix"/>
<feColorMatrix in="SourceAlpha" type="matrix" values="0 0 0 0 0 0 0 0 0 0 0 0 0 0 0 0 0 0 127 0" result="hardAlpha"/>
<feOffset dy="4"/>
<feGaussianBlur stdDeviation="2"/>
<feComposite in2="hardAlpha" operator="out"/>
<feColorMatrix type="matrix" values="0 0 0 0 0 0 0 0 0 0 0 0 0 0 0 0 0 0 0.25 0"/>
<feBlend mode="normal" in2="BackgroundImageFix" result="effect1_dropShadow_346_1035"/>
<feBlend mode="normal" in="SourceGraphic" in2="effect1_dropShadow_346_1035" result="shape"/>
</filter>
<filter id="filter1_f_346_1035" x="47" y="38" width="164" height="164" filterUnits="userSpaceOnUse" color-interpolation-filters="sRGB">
<feFlood flood-opacity="0" result="BackgroundImageFix"/>
<feBlend mode="normal" in="SourceGraphic" in2="BackgroundImageFix" result="shape"/>
<feGaussianBlur stdDeviation="3" result="effect1_foregroundBlur_346_1035"/>
</filter>
<linearGradient id="paint0_linear_346_1035" x1="129" y1="0" x2="213.5" y2="236.5" gradientUnits="userSpaceOnUse">
<stop stop-color="#6BCDEE"/>
<stop offset="0.475" stop-color="#180D49"/>
<stop offset="0.735" stop-color="#180D49"/>
</linearGradient>
<radialGradient id="paint1_radial_346_1035" cx="0" cy="0" r="1" gradientUnits="userSpaceOnUse" gradientTransform="translate(129 120) rotate(90) scale(104)">
<stop offset="0.765" stop-color="#00BCD4"/>
<stop offset="1" stop-color="#180D49"/>
</radialGradient>
<linearGradient id="paint2_linear_346_1035" x1="247.5" y1="109" x2="254.894" y2="129.694" gradientUnits="userSpaceOnUse">
<stop stop-color="#6BCDEE"/>
<stop offset="0.475" stop-color="#180D49"/>
<stop offset="0.735" stop-color="#180D49"/>
</linearGradient>
<linearGradient id="paint3_linear_346_1035" x1="10.5" y1="109" x2="17.8938" y2="129.694" gradientUnits="userSpaceOnUse">
<stop stop-color="#6BCDEE"/>
<stop offset="0.475" stop-color="#180D49"/>
<stop offset="0.735" stop-color="#180D49"/>
</linearGradient>
</defs>
</svg>
