<svg width="258" height="240" viewBox="0 0 258 240" fill="none" xmlns="http://www.w3.org/2000/svg">
<circle cx="129" cy="120" r="118.5" fill="white" stroke="url(#paint0_linear_272_824)" stroke-width="3"/>
<circle cx="129" cy="120" r="104" fill="#4F40F6"/>
<g filter="url(#filter0_f_272_824)">
<circle cx="129" cy="120" r="76" fill="white"/>
</g>
<circle cx="247.5" cy="119.5" r="9" fill="white" stroke="url(#paint1_linear_272_824)" stroke-width="3"/>
<circle cx="10.5" cy="119.5" r="9" fill="white" stroke="url(#paint2_linear_272_824)" stroke-width="3"/>
<path d="M113.316 146.528C110.794 146.528 108.535 145.912 106.54 144.68C104.546 143.419 102.976 141.6 101.832 139.224C100.688 136.848 100.116 133.973 100.116 130.6C100.116 127.227 100.688 124.352 101.832 121.976C102.976 119.6 104.546 117.796 106.54 116.564C108.535 115.303 110.794 114.672 113.316 114.672C115.868 114.672 118.127 115.303 120.092 116.564C122.087 117.796 123.656 119.6 124.8 121.976C125.944 124.352 126.516 127.227 126.516 130.6C126.516 133.973 125.944 136.848 124.8 139.224C123.656 141.6 122.087 143.419 120.092 144.68C118.127 145.912 115.868 146.528 113.316 146.528ZM113.316 140.5C114.519 140.5 115.56 140.163 116.44 139.488C117.35 138.813 118.054 137.743 118.552 136.276C119.08 134.809 119.344 132.917 119.344 130.6C119.344 128.283 119.08 126.391 118.552 124.924C118.054 123.457 117.35 122.387 116.44 121.712C115.56 121.037 114.519 120.7 113.316 120.7C112.143 120.7 111.102 121.037 110.192 121.712C109.312 122.387 108.608 123.457 108.08 124.924C107.582 126.391 107.332 128.283 107.332 130.6C107.332 132.917 107.582 134.809 108.08 136.276C108.608 137.743 109.312 138.813 110.192 139.488C111.102 140.163 112.143 140.5 113.316 140.5ZM129.628 139.532V134.736L144.148 115.2H151.628L137.416 134.736L133.94 133.724H158.184V139.532H129.628ZM146.216 146V139.532L146.436 133.724V127.96H153.168V146H146.216Z" fill="#2E2E2E"/>
<path d="M113.725 108.128C112.872 108.128 112.056 108 111.277 107.744C110.499 107.477 109.885 107.136 109.437 106.72L110.029 105.472C110.456 105.845 111 106.155 111.661 106.4C112.323 106.645 113.011 106.768 113.725 106.768C114.376 106.768 114.904 106.693 115.309 106.544C115.715 106.395 116.013 106.192 116.205 105.936C116.397 105.669 116.493 105.371 116.493 105.04C116.493 104.656 116.365 104.347 116.109 104.112C115.864 103.877 115.539 103.691 115.133 103.552C114.739 103.403 114.301 103.275 113.821 103.168C113.341 103.061 112.856 102.939 112.365 102.8C111.885 102.651 111.443 102.464 111.037 102.24C110.643 102.016 110.323 101.717 110.077 101.344C109.832 100.96 109.709 100.469 109.709 99.872C109.709 99.296 109.859 98.768 110.157 98.288C110.467 97.7973 110.936 97.408 111.565 97.12C112.205 96.8213 113.016 96.672 113.997 96.672C114.648 96.672 115.293 96.7573 115.933 96.928C116.573 97.0987 117.128 97.344 117.597 97.664L117.069 98.944C116.589 98.624 116.083 98.3947 115.549 98.256C115.016 98.1067 114.499 98.032 113.997 98.032C113.368 98.032 112.851 98.112 112.445 98.272C112.04 98.432 111.741 98.6453 111.549 98.912C111.368 99.1787 111.277 99.4773 111.277 99.808C111.277 100.203 111.4 100.517 111.645 100.752C111.901 100.987 112.227 101.173 112.621 101.312C113.027 101.451 113.469 101.579 113.949 101.696C114.429 101.803 114.909 101.925 115.389 102.064C115.88 102.203 116.323 102.384 116.717 102.608C117.123 102.832 117.448 103.131 117.693 103.504C117.939 103.877 118.061 104.357 118.061 104.944C118.061 105.509 117.907 106.037 117.597 106.528C117.288 107.008 116.808 107.397 116.157 107.696C115.517 107.984 114.707 108.128 113.725 108.128ZM122.467 108V98.192H118.627V96.8H127.891V98.192H124.051V108H122.467ZM131.089 101.632H136.849V102.992H131.089V101.632ZM131.233 106.608H137.761V108H129.633V96.8H137.537V98.192H131.233V106.608ZM140.352 108V96.8H144.72C145.701 96.8 146.539 96.9547 147.232 97.264C147.925 97.5733 148.459 98.0213 148.832 98.608C149.205 99.1947 149.392 99.8933 149.392 100.704C149.392 101.515 149.205 102.213 148.832 102.8C148.459 103.376 147.925 103.824 147.232 104.144C146.539 104.453 145.701 104.608 144.72 104.608H141.232L141.952 103.856V108H140.352ZM141.952 104.016L141.232 103.216H144.672C145.696 103.216 146.469 102.997 146.992 102.56C147.525 102.123 147.792 101.504 147.792 100.704C147.792 99.904 147.525 99.2853 146.992 98.848C146.469 98.4107 145.696 98.192 144.672 98.192H141.232L141.952 97.392V104.016Z" fill="#2E2E2E"/>
<defs>
<filter id="filter0_f_272_824" x="47" y="38" width="164" height="164" filterUnits="userSpaceOnUse" color-interpolation-filters="sRGB">
<feFlood flood-opacity="0" result="BackgroundImageFix"/>
<feBlend mode="normal" in="SourceGraphic" in2="BackgroundImageFix" result="shape"/>
<feGaussianBlur stdDeviation="3" result="effect1_foregroundBlur_272_824"/>
</filter>
<linearGradient id="paint0_linear_272_824" x1="129" y1="0" x2="213.5" y2="236.5" gradientUnits="userSpaceOnUse">
<stop stop-color="#6BCDEE"/>
<stop offset="1" stop-color="#3812E4"/>
</linearGradient>
<linearGradient id="paint1_linear_272_824" x1="247.5" y1="109" x2="254.894" y2="129.694" gradientUnits="userSpaceOnUse">
<stop stop-color="#6BCDEE"/>
<stop offset="1" stop-color="#3812E4"/>
</linearGradient>
<linearGradient id="paint2_linear_272_824" x1="10.5" y1="109" x2="17.8938" y2="129.694" gradientUnits="userSpaceOnUse">
<stop stop-color="#6BCDEE"/>
<stop offset="1" stop-color="#3812E4"/>
</linearGradient>
</defs>
</svg>
