<svg width="258" height="240" viewBox="0 0 258 240" fill="none" xmlns="http://www.w3.org/2000/svg">
<circle cx="129" cy="120" r="118.5" fill="white" stroke="url(#paint0_linear_346_1035)" stroke-width="3"/>
<g filter="url(#filter0_d_346_1035)">
<circle cx="129" cy="120" r="104" fill="url(#paint1_radial_346_1035)"/>
</g>
<g filter="url(#filter1_f_346_1035)">
<circle cx="129" cy="120" r="76" fill="white"/>
</g>
<circle cx="247.5" cy="119.5" r="9" fill="white" stroke="url(#paint2_linear_346_1035)" stroke-width="3"/>
<circle cx="10.5" cy="119.5" r="9" fill="white" stroke="url(#paint3_linear_346_1035)" stroke-width="3"/>
<path d="M117.771 139.572C115.982 139.572 114.354 139.161 112.887 138.34C111.42 137.504 110.152 136.353 109.081 134.886C108.025 133.419 107.211 131.725 106.639 129.804C106.067 127.868 105.781 125.8 105.781 123.6C105.781 121.4 106.067 119.339 106.639 117.418C107.211 115.482 108.025 113.781 109.081 112.314C110.152 110.847 111.42 109.703 112.887 108.882C114.354 108.046 115.982 107.628 117.771 107.628C119.56 107.628 121.188 108.046 122.655 108.882C124.122 109.703 125.376 110.847 126.417 112.314C127.473 113.781 128.287 115.482 128.859 117.418C129.446 119.339 129.739 121.4 129.739 123.6C129.739 125.8 129.446 127.868 128.859 129.804C128.287 131.725 127.473 133.419 126.417 134.886C125.376 136.353 124.122 137.504 122.655 138.34C121.188 139.161 119.56 139.572 117.771 139.572ZM117.771 134.204C119.34 134.204 120.638 133.705 121.665 132.708C122.692 131.711 123.454 130.405 123.953 128.792C124.452 127.179 124.701 125.448 124.701 123.6C124.701 121.649 124.437 119.875 123.909 118.276C123.381 116.663 122.604 115.379 121.577 114.426C120.55 113.473 119.282 112.996 117.771 112.996C116.583 112.996 115.549 113.289 114.669 113.876C113.804 114.448 113.085 115.233 112.513 116.23C111.941 117.227 111.516 118.364 111.237 119.64C110.958 120.901 110.819 122.221 110.819 123.6C110.819 125.433 111.068 127.164 111.567 128.792C112.08 130.405 112.85 131.711 113.877 132.708C114.918 133.705 116.216 134.204 117.771 134.204ZM145.931 139V131.542H132.819V126.152L144.677 108.2H151.299V126.174H153.895V131.542H151.299V139H145.931ZM139.045 126.152L145.931 126.174L145.909 115.526L139.045 126.152Z" fill="#2E2E2E"/>
<path d="M118.688 104.208C118.059 104.208 117.456 104.109 116.88 103.912C116.31 103.715 115.808 103.429 115.376 103.056C114.95 102.683 114.643 102.24 114.456 101.728L116.528 100.96C116.592 101.141 116.726 101.312 116.928 101.472C117.131 101.627 117.384 101.755 117.688 101.856C117.992 101.952 118.326 102 118.688 102C119.035 102 119.36 101.949 119.664 101.848C119.974 101.741 120.222 101.595 120.408 101.408C120.6 101.221 120.696 101.003 120.696 100.752C120.696 100.501 120.598 100.293 120.4 100.128C120.203 99.9627 119.95 99.832 119.64 99.736C119.331 99.6347 119.014 99.5573 118.688 99.504C117.883 99.3867 117.16 99.1973 116.52 98.936C115.886 98.6693 115.384 98.304 115.016 97.84C114.648 97.3707 114.464 96.776 114.464 96.056C114.464 95.3627 114.659 94.7573 115.048 94.24C115.443 93.7227 115.96 93.32 116.6 93.032C117.246 92.744 117.942 92.6 118.688 92.6C119.307 92.6 119.904 92.6987 120.48 92.896C121.056 93.0933 121.558 93.3787 121.984 93.752C122.416 94.1253 122.726 94.5733 122.912 95.096L120.84 95.848C120.776 95.6667 120.643 95.4987 120.44 95.344C120.238 95.1893 119.984 95.064 119.68 94.968C119.376 94.872 119.046 94.824 118.688 94.824C118.347 94.8187 118.022 94.8693 117.712 94.976C117.408 95.0827 117.158 95.2293 116.96 95.416C116.768 95.6027 116.672 95.816 116.672 96.056C116.672 96.3707 116.763 96.608 116.944 96.768C117.131 96.928 117.376 97.0427 117.68 97.112C117.984 97.1813 118.32 97.2427 118.688 97.296C119.446 97.408 120.144 97.608 120.784 97.896C121.424 98.1787 121.936 98.5573 122.32 99.032C122.71 99.5013 122.904 100.075 122.904 100.752C122.904 101.445 122.71 102.051 122.32 102.568C121.931 103.085 121.416 103.488 120.776 103.776C120.136 104.064 119.44 104.208 118.688 104.208ZM132.831 92.8V95.008H129.535V104H127.327V95.008H124.031V92.8H132.831ZM134.429 104V92.8H141.517V95.008H136.637V96.896H140.445V99.104H136.637V101.792H141.517V104H134.429ZM143.288 104V92.8H147.416C148.029 92.8 148.581 92.9547 149.072 93.264C149.568 93.5733 149.963 93.9867 150.256 94.504C150.549 95.016 150.696 95.5813 150.696 96.2C150.696 96.8293 150.547 97.4027 150.248 97.92C149.949 98.432 149.549 98.84 149.048 99.144C148.552 99.448 148.008 99.6 147.416 99.6H145.496V104H143.288ZM145.496 97.392H147.168C147.413 97.392 147.635 97.3333 147.832 97.216C148.029 97.0933 148.187 96.9307 148.304 96.728C148.427 96.52 148.488 96.2907 148.488 96.04C148.488 95.7947 148.427 95.5707 148.304 95.368C148.187 95.16 148.029 94.9947 147.832 94.872C147.635 94.7493 147.413 94.688 147.168 94.688H145.496V97.392Z" fill="#2E2E2E"/>
<defs>
<filter id="filter0_d_346_1035" x="21" y="16" width="216" height="216" filterUnits="userSpaceOnUse" color-interpolation-filters="sRGB">
<feFlood flood-opacity="0" result="BackgroundImageFix"/>
<feColorMatrix in="SourceAlpha" type="matrix" values="0 0 0 0 0 0 0 0 0 0 0 0 0 0 0 0 0 0 127 0" result="hardAlpha"/>
<feOffset dy="4"/>
<feGaussianBlur stdDeviation="2"/>
<feComposite in2="hardAlpha" operator="out"/>
<feColorMatrix type="matrix" values="0 0 0 0 0 0 0 0 0 0 0 0 0 0 0 0 0 0 0.25 0"/>
<feBlend mode="normal" in2="BackgroundImageFix" result="effect1_dropShadow_346_1035"/>
<feBlend mode="normal" in="SourceGraphic" in2="effect1_dropShadow_346_1035" result="shape"/>
</filter>
<filter id="filter1_f_346_1035" x="47" y="38" width="164" height="164" filterUnits="userSpaceOnUse" color-interpolation-filters="sRGB">
<feFlood flood-opacity="0" result="BackgroundImageFix"/>
<feBlend mode="normal" in="SourceGraphic" in2="BackgroundImageFix" result="shape"/>
<feGaussianBlur stdDeviation="3" result="effect1_foregroundBlur_346_1035"/>
</filter>
<linearGradient id="paint0_linear_346_1035" x1="129" y1="0" x2="213.5" y2="236.5" gradientUnits="userSpaceOnUse">
<stop stop-color="#6BCDEE"/>
<stop offset="0.475" stop-color="#180D49"/>
<stop offset="0.735" stop-color="#180D49"/>
</linearGradient>
<radialGradient id="paint1_radial_346_1035" cx="0" cy="0" r="1" gradientUnits="userSpaceOnUse" gradientTransform="translate(129 120) rotate(90) scale(104)">
<stop offset="0.765" stop-color="#00BCD4"/>
<stop offset="1" stop-color="#180D49"/>
</radialGradient>
<linearGradient id="paint2_linear_346_1035" x1="247.5" y1="109" x2="254.894" y2="129.694" gradientUnits="userSpaceOnUse">
<stop stop-color="#6BCDEE"/>
<stop offset="0.475" stop-color="#180D49"/>
<stop offset="0.735" stop-color="#180D49"/>
</linearGradient>
<linearGradient id="paint3_linear_346_1035" x1="10.5" y1="109" x2="17.8938" y2="129.694" gradientUnits="userSpaceOnUse">
<stop stop-color="#6BCDEE"/>
<stop offset="0.475" stop-color="#180D49"/>
<stop offset="0.735" stop-color="#180D49"/>
</linearGradient>
</defs>
</svg>
